<svg xmlns="http://www.w3.org/2000/svg" xmlns:xlink="http://www.w3.org/1999/xlink" width="500" zoomAndPan="magnify" viewBox="0 0 375 374.999991" height="500" preserveAspectRatio="xMidYMid meet" version="1.0"><defs><g/><clipPath id="5052741bc9"><path d="M 100 58.066406 L 275 58.066406 L 275 151 L 100 151 Z M 100 58.066406 " clip-rule="nonzero"/></clipPath><clipPath id="97ab55fd5d"><path d="M 174 87 L 293.03125 87 L 293.03125 263.566406 L 174 263.566406 Z M 174 87 " clip-rule="nonzero"/></clipPath><clipPath id="3db616248d"><path d="M 82.28125 87 L 184 87 L 184 262 L 82.28125 262 Z M 82.28125 87 " clip-rule="nonzero"/></clipPath></defs><path fill="#333456" d="M 168.734375 140.207031 C 168.734375 150.644531 177.207031 159.101562 187.652344 159.101562 C 198.101562 159.101562 206.570312 150.644531 206.570312 140.207031 C 206.570312 129.773438 198.101562 121.3125 187.652344 121.3125 C 177.207031 121.3125 168.734375 129.773438 168.734375 140.207031 " fill-opacity="1" fill-rule="nonzero"/><g clip-path="url(#5052741bc9)"><path fill="#333456" d="M 187.652344 69.28125 C 141.3125 69.28125 103.414062 105.363281 100.574219 150.933594 C 100.460938 149.109375 100.398438 147.273438 100.398438 145.421875 C 100.398438 97.289062 139.464844 58.273438 187.652344 58.273438 C 235.84375 58.273438 274.910156 97.289062 274.910156 145.421875 C 274.910156 147.273438 274.847656 149.109375 274.730469 150.933594 C 271.894531 105.363281 233.996094 69.28125 187.652344 69.28125 " fill-opacity="1" fill-rule="nonzero"/></g><path fill="#333456" d="M 145.410156 116.625 L 187.652344 94.925781 L 229.898438 116.625 L 208.226562 119.46875 L 208.226562 137.78125 L 167.082031 137.78125 L 167.082031 119.46875 L 161.941406 118.796875 L 161.941406 130.242188 C 161.941406 131.109375 161.234375 131.8125 160.367188 131.8125 C 159.496094 131.8125 158.792969 131.109375 158.792969 130.242188 L 158.792969 118.382812 L 145.410156 116.625 " fill-opacity="1" fill-rule="nonzero"/><g clip-path="url(#97ab55fd5d)"><path fill="#333456" d="M 174.984375 239.371094 C 175.007812 236.796875 175.113281 234.996094 175.183594 234.261719 C 177.332031 210.902344 185.9375 188.527344 200.023438 169.566406 C 210.042969 156.070312 239.230469 131.359375 249.496094 102.179688 C 247.511719 124.976562 234.238281 146.921875 218.347656 169.566406 C 202.164062 192.625 220.265625 234.542969 220.265625 234.542969 C 257.449219 221.195312 284.042969 185.660156 284.042969 143.925781 C 284.042969 122.667969 277.136719 103.027344 265.457031 87.097656 C 282.578125 105.8125 293.03125 130.726562 293.03125 158.078125 C 293.03125 207.484375 258.949219 248.933594 212.988281 260.265625 C 204.875 262.265625 196.386719 263.324219 187.652344 263.324219 C 184.015625 263.324219 180.429688 263.140625 176.886719 262.785156 C 175.226562 253.359375 174.933594 244.707031 174.984375 239.371094 " fill-opacity="1" fill-rule="nonzero"/></g><g clip-path="url(#3db616248d)"><path fill="#c59035" d="M 167.367188 239.296875 C 167.390625 236.554688 167.503906 234.519531 167.597656 233.53125 C 169.269531 215.375 174.632812 197.761719 183.289062 181.710938 C 180.859375 177.53125 178.195312 173.476562 175.289062 169.566406 C 165.265625 156.074219 136.078125 131.363281 125.8125 102.183594 C 127.796875 124.976562 141.066406 146.921875 156.960938 169.566406 C 173.144531 192.625 155.046875 234.542969 155.046875 234.542969 C 117.859375 221.195312 91.269531 185.664062 91.269531 143.929688 C 91.269531 122.667969 98.171875 103.027344 109.855469 87.097656 C 92.730469 105.8125 82.28125 130.726562 82.28125 158.082031 C 82.28125 207.484375 116.359375 248.933594 162.320312 260.265625 C 164.515625 260.804688 166.734375 261.277344 168.984375 261.675781 C 167.496094 252.109375 167.324219 243.664062 167.367188 239.296875 " fill-opacity="1" fill-rule="nonzero"/></g><g fill="#333456" fill-opacity="1"><g transform="translate(79.099537, 81.000201)"><g><path d="M 5.1875 -6.09375 C 4.445312 -5.132812 3.617188 -4.296875 2.703125 -3.578125 C 1.796875 -2.859375 1.003906 -2.34375 0.328125 -2.03125 L -3.859375 -5.296875 L -3.6875 -5.515625 C -1.925781 -4.878906 -0.269531 -4.679688 1.28125 -4.921875 C 2.84375 -5.160156 4.046875 -5.820312 4.890625 -6.90625 C 5.554688 -7.757812 5.835938 -8.628906 5.734375 -9.515625 C 5.640625 -10.398438 5.222656 -11.132812 4.484375 -11.71875 C 3.691406 -12.332031 2.851562 -12.503906 1.96875 -12.234375 C 1.09375 -11.960938 0.0234375 -11.40625 -1.234375 -10.5625 C -2.367188 -9.757812 -3.359375 -9.164062 -4.203125 -8.78125 C -5.046875 -8.394531 -5.914062 -8.226562 -6.8125 -8.28125 C -7.71875 -8.34375 -8.644531 -8.75 -9.59375 -9.5 C -10.425781 -10.144531 -11.007812 -10.941406 -11.34375 -11.890625 C -11.675781 -12.847656 -11.726562 -13.875 -11.5 -14.96875 C -11.269531 -16.0625 -10.75 -17.125 -9.9375 -18.15625 C -9.300781 -18.96875 -8.582031 -19.695312 -7.78125 -20.34375 C -6.976562 -21 -6.285156 -21.476562 -5.703125 -21.78125 L -1.8125 -18.75 L -1.96875 -18.53125 C -3.65625 -19.0625 -5.164062 -19.238281 -6.5 -19.0625 C -7.832031 -18.882812 -8.890625 -18.300781 -9.671875 -17.3125 C -10.253906 -16.550781 -10.519531 -15.753906 -10.46875 -14.921875 C -10.425781 -14.085938 -10.046875 -13.390625 -9.328125 -12.828125 C -8.597656 -12.265625 -7.796875 -12.125 -6.921875 -12.40625 C -6.046875 -12.6875 -4.898438 -13.300781 -3.484375 -14.25 C -2.398438 -14.976562 -1.453125 -15.523438 -0.640625 -15.890625 C 0.171875 -16.265625 1.046875 -16.421875 1.984375 -16.359375 C 2.929688 -16.304688 3.90625 -15.890625 4.90625 -15.109375 C 5.78125 -14.421875 6.394531 -13.585938 6.75 -12.609375 C 7.101562 -11.640625 7.148438 -10.585938 6.890625 -9.453125 C 6.628906 -8.328125 6.0625 -7.207031 5.1875 -6.09375 Z M 5.1875 -6.09375 "/></g></g></g><g fill="#333456" fill-opacity="1"><g transform="translate(90.492158, 66.573398)"><g><path d="M 7.421875 -6.59375 C 6.171875 -5.40625 4.773438 -4.640625 3.234375 -4.296875 C 1.691406 -3.960938 0.160156 -4.050781 -1.359375 -4.5625 C -2.878906 -5.082031 -4.265625 -6 -5.515625 -7.3125 C -6.828125 -8.695312 -7.695312 -10.222656 -8.125 -11.890625 C -8.550781 -13.554688 -8.515625 -15.207031 -8.015625 -16.84375 C -7.523438 -18.476562 -6.609375 -19.941406 -5.265625 -21.234375 C -4.441406 -22.003906 -3.582031 -22.644531 -2.6875 -23.15625 C -1.789062 -23.675781 -1.015625 -24.039062 -0.359375 -24.25 L 3.078125 -20.640625 L 2.890625 -20.453125 C 1.441406 -21.222656 -0.0351562 -21.585938 -1.546875 -21.546875 C -3.054688 -21.515625 -4.332031 -21.003906 -5.375 -20.015625 C -6.15625 -19.273438 -6.632812 -18.414062 -6.8125 -17.4375 C -7 -16.46875 -6.878906 -15.429688 -6.453125 -14.328125 C -6.023438 -13.222656 -5.289062 -12.125 -4.25 -11.03125 C -3.15625 -9.875 -1.945312 -9.039062 -0.625 -8.53125 C 0.695312 -8.019531 2 -7.867188 3.28125 -8.078125 C 4.5625 -8.285156 5.703125 -8.863281 6.703125 -9.8125 C 7.597656 -10.664062 8.164062 -11.644531 8.40625 -12.75 C 8.644531 -13.851562 8.554688 -15.039062 8.140625 -16.3125 L 8.328125 -16.5 C 9.054688 -15.445312 9.515625 -14.332031 9.703125 -13.15625 C 9.898438 -11.988281 9.8125 -10.832031 9.4375 -9.6875 C 9.0625 -8.550781 8.390625 -7.519531 7.421875 -6.59375 Z M 7.421875 -6.59375 "/></g></g></g><g fill="#333456" fill-opacity="1"><g transform="translate(105.027055, 52.779946)"><g><path d="M 1.453125 -1.15625 C 1.503906 -2.207031 1.140625 -3.3125 0.359375 -4.46875 L -6.203125 -14.125 C -6.992188 -15.28125 -7.882812 -16.03125 -8.875 -16.375 L -8.953125 -16.484375 L -4.203125 -19.703125 L -4.125 -19.59375 C -4.175781 -18.539062 -3.804688 -17.4375 -3.015625 -16.28125 L -0.078125 -11.953125 L 6.421875 -16.359375 L 3.484375 -20.6875 C 2.691406 -21.84375 1.800781 -22.59375 0.8125 -22.9375 L 0.734375 -23.046875 L 5.484375 -26.28125 L 5.5625 -26.171875 C 5.507812 -25.117188 5.878906 -24.015625 6.671875 -22.859375 L 13.234375 -13.203125 C 14.015625 -12.046875 14.898438 -11.296875 15.890625 -10.953125 L 15.96875 -10.84375 L 11.21875 -7.609375 L 11.140625 -7.71875 C 11.191406 -8.769531 10.828125 -9.875 10.046875 -11.03125 L 6.78125 -15.8125 L 0.28125 -11.40625 L 3.546875 -6.625 C 4.328125 -5.46875 5.210938 -4.71875 6.203125 -4.375 L 6.28125 -4.265625 L 1.53125 -1.046875 Z M 1.453125 -1.15625 "/></g></g></g><g fill="#333456" fill-opacity="1"><g transform="translate(124.39582, 39.894454)"><g><path d="M 9.4375 -3.859375 C 7.757812 -3.109375 6.128906 -2.8125 4.546875 -2.96875 C 2.960938 -3.132812 1.523438 -3.734375 0.234375 -4.765625 C -1.046875 -5.796875 -2.082031 -7.1875 -2.875 -8.9375 C -3.65625 -10.675781 -4.003906 -12.375 -3.921875 -14.03125 C -3.835938 -15.6875 -3.328125 -17.15625 -2.390625 -18.4375 C -1.460938 -19.726562 -0.160156 -20.75 1.515625 -21.5 C 3.171875 -22.25 4.789062 -22.546875 6.375 -22.390625 C 7.957031 -22.234375 9.394531 -21.632812 10.6875 -20.59375 C 11.976562 -19.5625 13.015625 -18.175781 13.796875 -16.4375 C 14.585938 -14.6875 14.9375 -12.984375 14.84375 -11.328125 C 14.757812 -9.679688 14.25 -8.210938 13.3125 -6.921875 C 12.382812 -5.628906 11.09375 -4.609375 9.4375 -3.859375 Z M 9.15625 -4.484375 C 10.101562 -4.910156 10.765625 -5.625 11.140625 -6.625 C 11.523438 -7.625 11.617188 -8.816406 11.421875 -10.203125 C 11.222656 -11.597656 10.757812 -13.109375 10.03125 -14.734375 C 9.300781 -16.359375 8.476562 -17.707031 7.5625 -18.78125 C 6.65625 -19.851562 5.703125 -20.578125 4.703125 -20.953125 C 3.710938 -21.328125 2.742188 -21.300781 1.796875 -20.875 C 0.847656 -20.457031 0.1875 -19.75 -0.1875 -18.75 C -0.570312 -17.75 -0.671875 -16.550781 -0.484375 -15.15625 C -0.296875 -13.769531 0.160156 -12.265625 0.890625 -10.640625 C 1.617188 -9.015625 2.441406 -7.664062 3.359375 -6.59375 C 4.285156 -5.519531 5.242188 -4.796875 6.234375 -4.421875 C 7.234375 -4.046875 8.207031 -4.066406 9.15625 -4.484375 Z M 9.15625 -4.484375 "/></g></g></g><g fill="#333456" fill-opacity="1"><g transform="translate(144.981483, 30.844316)"><g><path d="M 9.953125 -2.203125 C 8.171875 -1.742188 6.515625 -1.726562 4.984375 -2.15625 C 3.453125 -2.59375 2.140625 -3.425781 1.046875 -4.65625 C -0.046875 -5.894531 -0.828125 -7.441406 -1.296875 -9.296875 C -1.773438 -11.148438 -1.832031 -12.882812 -1.46875 -14.5 C -1.101562 -16.113281 -0.351562 -17.472656 0.78125 -18.578125 C 1.914062 -19.691406 3.375 -20.476562 5.15625 -20.9375 C 6.914062 -21.382812 8.5625 -21.394531 10.09375 -20.96875 C 11.632812 -20.539062 12.953125 -19.707031 14.046875 -18.46875 C 15.140625 -17.226562 15.925781 -15.679688 16.40625 -13.828125 C 16.875 -11.972656 16.925781 -10.238281 16.5625 -8.625 C 16.195312 -7.019531 15.441406 -5.660156 14.296875 -4.546875 C 13.160156 -3.429688 11.710938 -2.648438 9.953125 -2.203125 Z M 9.796875 -2.859375 C 10.796875 -3.117188 11.566406 -3.707031 12.109375 -4.625 C 12.660156 -5.550781 12.957031 -6.71875 13 -8.125 C 13.039062 -9.53125 12.84375 -11.09375 12.40625 -12.8125 C 11.957031 -14.539062 11.375 -16.007812 10.65625 -17.21875 C 9.945312 -18.425781 9.128906 -19.300781 8.203125 -19.84375 C 7.285156 -20.382812 6.328125 -20.523438 5.328125 -20.265625 C 4.328125 -20.003906 3.550781 -19.414062 3 -18.5 C 2.457031 -17.582031 2.160156 -16.421875 2.109375 -15.015625 C 2.054688 -13.609375 2.253906 -12.039062 2.703125 -10.3125 C 3.140625 -8.59375 3.71875 -7.128906 4.4375 -5.921875 C 5.164062 -4.710938 5.988281 -3.832031 6.90625 -3.28125 C 7.832031 -2.738281 8.796875 -2.597656 9.796875 -2.859375 Z M 9.796875 -2.859375 "/></g></g></g><g fill="#333456" fill-opacity="1"><g transform="translate(166.957966, 25.570757)"><g><path d="M 1.828125 -0.3125 C 2.367188 -1.207031 2.570312 -2.347656 2.4375 -3.734375 L 1.3125 -15.359375 C 1.175781 -16.753906 0.757812 -17.835938 0.0625 -18.609375 L 0.046875 -18.734375 L 5.765625 -19.296875 L 5.78125 -19.171875 C 5.226562 -18.273438 5.019531 -17.128906 5.15625 -15.734375 L 6.5625 -1.3125 L 9.21875 -1.578125 C 10.40625 -1.691406 11.375 -1.960938 12.125 -2.390625 C 12.875 -2.828125 13.46875 -3.394531 13.90625 -4.09375 C 14.351562 -4.789062 14.75 -5.671875 15.09375 -6.734375 L 15.359375 -6.75 L 15.203125 -1.46875 L 1.84375 -0.171875 Z M 1.828125 -0.3125 "/></g></g></g><g fill="#333456" fill-opacity="1"><g transform="translate(185.226003, 24.176735)"><g/></g></g><g fill="#333456" fill-opacity="1"><g transform="translate(194.524663, 24.145935)"><g><path d="M 7.90625 1.265625 C 6.695312 1.128906 5.550781 0.859375 4.46875 0.453125 C 3.382812 0.046875 2.53125 -0.363281 1.90625 -0.78125 L 2.515625 -6.046875 L 2.78125 -6.015625 C 3.164062 -4.171875 3.863281 -2.648438 4.875 -1.453125 C 5.882812 -0.265625 7.070312 0.40625 8.4375 0.5625 C 9.519531 0.6875 10.414062 0.476562 11.125 -0.0625 C 11.832031 -0.601562 12.238281 -1.335938 12.34375 -2.265625 C 12.457031 -3.265625 12.171875 -4.066406 11.484375 -4.671875 C 10.796875 -5.285156 9.765625 -5.910156 8.390625 -6.546875 C 7.109375 -7.109375 6.082031 -7.644531 5.3125 -8.15625 C 4.539062 -8.675781 3.941406 -9.332031 3.515625 -10.125 C 3.097656 -10.925781 2.960938 -11.925781 3.109375 -13.125 C 3.222656 -14.175781 3.601562 -15.09375 4.25 -15.875 C 4.894531 -16.664062 5.742188 -17.242188 6.796875 -17.609375 C 7.847656 -17.972656 9.03125 -18.082031 10.34375 -17.9375 C 11.363281 -17.8125 12.359375 -17.578125 13.328125 -17.234375 C 14.304688 -16.890625 15.078125 -16.539062 15.640625 -16.1875 L 15.0625 -11.28125 L 14.796875 -11.3125 C 14.378906 -13.03125 13.742188 -14.410156 12.890625 -15.453125 C 12.046875 -16.503906 11 -17.101562 9.75 -17.25 C 8.789062 -17.363281 7.96875 -17.179688 7.28125 -16.703125 C 6.59375 -16.234375 6.195312 -15.550781 6.09375 -14.65625 C 5.988281 -13.726562 6.285156 -12.960938 6.984375 -12.359375 C 7.679688 -11.765625 8.804688 -11.109375 10.359375 -10.390625 C 11.535156 -9.835938 12.492188 -9.3125 13.234375 -8.8125 C 13.972656 -8.320312 14.5625 -7.65625 15 -6.8125 C 15.445312 -5.976562 15.597656 -4.9375 15.453125 -3.6875 C 15.328125 -2.570312 14.9375 -1.609375 14.28125 -0.796875 C 13.632812 0.00390625 12.757812 0.585938 11.65625 0.953125 C 10.5625 1.316406 9.3125 1.421875 7.90625 1.265625 Z M 7.90625 1.265625 "/></g></g></g><g fill="#333456" fill-opacity="1"><g transform="translate(212.787554, 26.386356)"><g><path d="M 5.75 1.375 C 6.5625 0.726562 7.144531 -0.269531 7.5 -1.625 L 8.328125 -4.75 L 6.4375 -13.8125 C 6.101562 -15.351562 5.582031 -16.707031 4.875 -17.875 L 4.90625 -18 L 11.46875 -16.25 L 11.4375 -16.125 C 10.96875 -15.738281 10.660156 -15.265625 10.515625 -14.703125 C 10.359375 -14.117188 10.359375 -13.484375 10.515625 -12.796875 L 12.015625 -5.390625 L 16.875 -10.859375 C 17.363281 -11.421875 17.691406 -12.003906 17.859375 -12.609375 C 18.035156 -13.296875 17.988281 -13.914062 17.71875 -14.46875 L 17.75 -14.59375 L 21.59375 -13.5625 L 21.5625 -13.4375 C 20.1875 -12.925781 18.988281 -12.101562 17.96875 -10.96875 L 12.328125 -4.65625 L 11.25 -0.625 C 10.894531 0.726562 10.910156 1.890625 11.296875 2.859375 L 11.265625 3 L 5.71875 1.515625 Z M 5.75 1.375 "/></g></g></g><g fill="#333456" fill-opacity="1"><g transform="translate(231.617864, 31.606744)"><g><path d="M 7.21875 3.453125 C 6.101562 2.984375 5.082031 2.394531 4.15625 1.6875 C 3.226562 0.988281 2.53125 0.363281 2.0625 -0.1875 L 4.140625 -5.078125 L 4.375 -4.984375 C 4.21875 -3.109375 4.453125 -1.453125 5.078125 -0.015625 C 5.710938 1.421875 6.660156 2.410156 7.921875 2.953125 C 8.921875 3.378906 9.835938 3.429688 10.671875 3.109375 C 11.503906 2.796875 12.101562 2.207031 12.46875 1.34375 C 12.863281 0.425781 12.816406 -0.421875 12.328125 -1.203125 C 11.847656 -1.992188 11.039062 -2.882812 9.90625 -3.875 C 8.832031 -4.78125 8 -5.59375 7.40625 -6.3125 C 6.820312 -7.03125 6.441406 -7.828125 6.265625 -8.703125 C 6.097656 -9.585938 6.25 -10.585938 6.71875 -11.703125 C 7.132812 -12.671875 7.757812 -13.4375 8.59375 -14 C 9.4375 -14.570312 10.414062 -14.882812 11.53125 -14.9375 C 12.644531 -14.988281 13.804688 -14.757812 15.015625 -14.25 C 15.960938 -13.84375 16.851562 -13.335938 17.6875 -12.734375 C 18.519531 -12.128906 19.15625 -11.578125 19.59375 -11.078125 L 17.65625 -6.53125 L 17.421875 -6.640625 C 17.503906 -8.398438 17.289062 -9.90625 16.78125 -11.15625 C 16.269531 -12.40625 15.429688 -13.273438 14.265625 -13.765625 C 13.390625 -14.140625 12.550781 -14.195312 11.75 -13.9375 C 10.945312 -13.675781 10.367188 -13.128906 10.015625 -12.296875 C 9.648438 -11.453125 9.71875 -10.640625 10.21875 -9.859375 C 10.71875 -9.078125 11.609375 -8.128906 12.890625 -7.015625 C 13.878906 -6.148438 14.648438 -5.375 15.203125 -4.6875 C 15.765625 -4 16.132812 -3.1875 16.3125 -2.25 C 16.5 -1.320312 16.347656 -0.28125 15.859375 0.875 C 15.421875 1.894531 14.773438 2.703125 13.921875 3.296875 C 13.066406 3.890625 12.0625 4.203125 10.90625 4.234375 C 9.75 4.273438 8.519531 4.015625 7.21875 3.453125 Z M 7.21875 3.453125 "/></g></g></g><g fill="#333456" fill-opacity="1"><g transform="translate(248.479465, 38.933276)"><g><path d="M 5.234375 3.046875 C 6.203125 2.660156 7.050781 1.875 7.78125 0.6875 L 15.375 -11.6875 L 14.53125 -12.203125 C 13.363281 -12.921875 12.171875 -13.175781 10.953125 -12.96875 C 9.742188 -12.757812 8.46875 -12.191406 7.125 -11.265625 L 6.90625 -11.40625 L 10.265625 -15.578125 L 24.484375 -6.859375 L 22.21875 -1.984375 L 22 -2.125 C 22.238281 -3.726562 22.175781 -5.117188 21.8125 -6.296875 C 21.457031 -7.472656 20.6875 -8.425781 19.5 -9.15625 L 18.65625 -9.671875 L 11.0625 2.703125 C 10.332031 3.890625 10.015625 5.003906 10.109375 6.046875 L 10.03125 6.171875 L 5.15625 3.171875 Z M 5.234375 3.046875 "/></g></g></g><g fill="#333456" fill-opacity="1"><g transform="translate(265.508509, 49.63293)"><g><path d="M 1.515625 1.09375 C 2.523438 0.851562 3.484375 0.203125 4.390625 -0.859375 L 11.921875 -9.796875 C 12.828125 -10.859375 13.3125 -11.910156 13.375 -12.953125 L 13.453125 -13.046875 L 23.453125 -4.609375 L 20.6875 -0.28125 L 20.484375 -0.453125 C 20.941406 -2.003906 21.050781 -3.359375 20.8125 -4.515625 C 20.582031 -5.679688 19.8125 -6.820312 18.5 -7.9375 L 16.703125 -9.453125 L 11.375 -3.140625 L 13.1875 -1.609375 C 13.96875 -0.953125 14.726562 -0.617188 15.46875 -0.609375 C 16.21875 -0.609375 16.976562 -0.878906 17.75 -1.421875 L 17.953125 -1.25 L 13.921875 3.546875 L 13.71875 3.375 C 14.113281 2.519531 14.242188 1.722656 14.109375 0.984375 C 13.984375 0.253906 13.53125 -0.4375 12.75 -1.09375 L 10.9375 -2.625 L 5.53125 3.78125 L 7.765625 5.671875 C 9.085938 6.785156 10.34375 7.363281 11.53125 7.40625 C 12.71875 7.445312 14.023438 7.109375 15.453125 6.390625 L 15.65625 6.5625 L 11.875 10.03125 L 1.421875 1.203125 Z M 1.515625 1.09375 "/></g></g></g><g fill="#333456" fill-opacity="1"><g transform="translate(280.250568, 61.860255)"><g><path d="M 1.015625 0.96875 C 1.710938 0.976562 2.347656 0.90625 2.921875 0.75 C 3.492188 0.601562 4.015625 0.332031 4.484375 -0.0625 L 13.484375 -7.546875 C 13.960938 -7.941406 14.320312 -8.40625 14.5625 -8.9375 C 14.8125 -9.476562 15 -10.097656 15.125 -10.796875 L 15.234375 -10.875 L 18.515625 -6.921875 L 11.796875 6.515625 L 26.203125 2.296875 L 29.078125 5.765625 L 28.96875 5.84375 C 27.925781 5.90625 26.867188 6.382812 25.796875 7.28125 L 16.8125 14.75 C 15.738281 15.644531 15.082031 16.597656 14.84375 17.609375 L 14.734375 17.703125 L 11.0625 13.296875 L 11.171875 13.203125 C 12.210938 13.148438 13.269531 12.675781 14.34375 11.78125 L 23.984375 3.765625 L 7.171875 8.625 L 6.8125 8.1875 L 14.53125 -7.390625 L 4.984375 0.546875 C 4.515625 0.941406 4.15625 1.40625 3.90625 1.9375 C 3.65625 2.476562 3.472656 3.097656 3.359375 3.796875 L 3.234375 3.890625 L 0.890625 1.0625 Z M 1.015625 0.96875 "/></g></g></g><g fill="#333456" fill-opacity="1"><g transform="translate(45.549092, 329.729396)"><g><path d="M 3.53125 -0.25 C 4.707031 -1.832031 5.296875 -3.953125 5.296875 -6.609375 L 5.296875 -28.734375 C 5.296875 -31.390625 4.707031 -33.507812 3.53125 -35.09375 L 3.53125 -35.34375 L 28.53125 -35.34375 L 29.796875 -25.703125 L 29.296875 -25.703125 C 28.078125 -28.492188 26.582031 -30.585938 24.8125 -31.984375 C 23.050781 -33.390625 20.535156 -34.09375 17.265625 -34.09375 L 12.625 -34.09375 L 12.625 -18.4375 L 17.328125 -18.4375 C 19.242188 -18.4375 20.75 -18.890625 21.84375 -19.796875 C 22.9375 -20.703125 23.734375 -22.015625 24.234375 -23.734375 L 24.75 -23.734375 L 24.75 -11.875 L 24.234375 -11.875 C 23.734375 -13.582031 22.9375 -14.890625 21.84375 -15.796875 C 20.75 -16.710938 19.242188 -17.171875 17.328125 -17.171875 L 12.625 -17.171875 L 12.625 -6.609375 C 12.625 -3.953125 13.210938 -1.832031 14.390625 -0.25 L 14.390625 0 L 3.53125 0 Z M 3.53125 -0.25 "/></g></g></g><g fill="#333456" fill-opacity="1"><g transform="translate(77.670724, 329.729396)"><g><path d="M 19.296875 0.65625 C 15.828125 0.65625 12.785156 -0.0976562 10.171875 -1.609375 C 7.566406 -3.128906 5.546875 -5.273438 4.109375 -8.046875 C 2.679688 -10.828125 1.96875 -14.035156 1.96875 -17.671875 C 1.96875 -21.304688 2.679688 -24.515625 4.109375 -27.296875 C 5.546875 -30.078125 7.566406 -32.222656 10.171875 -33.734375 C 12.785156 -35.242188 15.828125 -36 19.296875 -36 C 22.765625 -36 25.800781 -35.242188 28.40625 -33.734375 C 31.007812 -32.222656 33.023438 -30.078125 34.453125 -27.296875 C 35.890625 -24.515625 36.609375 -21.304688 36.609375 -17.671875 C 36.609375 -14.035156 35.890625 -10.828125 34.453125 -8.046875 C 33.023438 -5.273438 31.007812 -3.128906 28.40625 -1.609375 C 25.800781 -0.0976562 22.765625 0.65625 19.296875 0.65625 Z M 19.296875 -0.65625 C 21.273438 -0.65625 22.976562 -1.367188 24.40625 -2.796875 C 25.84375 -4.234375 26.929688 -6.226562 27.671875 -8.78125 C 28.410156 -11.34375 28.78125 -14.304688 28.78125 -17.671875 C 28.78125 -21.035156 28.410156 -24 27.671875 -26.5625 C 26.929688 -29.125 25.84375 -31.117188 24.40625 -32.546875 C 22.976562 -33.972656 21.273438 -34.6875 19.296875 -34.6875 C 17.335938 -34.6875 15.640625 -33.972656 14.203125 -32.546875 C 12.773438 -31.117188 11.679688 -29.125 10.921875 -26.5625 C 10.171875 -24 9.796875 -21.035156 9.796875 -17.671875 C 9.796875 -14.304688 10.171875 -11.34375 10.921875 -8.78125 C 11.679688 -6.226562 12.773438 -4.234375 14.203125 -2.796875 C 15.640625 -1.367188 17.335938 -0.65625 19.296875 -0.65625 Z M 19.296875 -0.65625 "/></g></g></g><g fill="#333456" fill-opacity="1"><g transform="translate(117.87326, 329.729396)"><g><path d="M 31.15625 0.40625 C 29.039062 0.40625 27.320312 -0.0859375 26 -1.078125 C 24.6875 -2.078125 23.691406 -3.257812 23.015625 -4.625 C 22.347656 -5.988281 21.660156 -7.726562 20.953125 -9.84375 C 20.453125 -11.363281 20.003906 -12.566406 19.609375 -13.453125 C 19.222656 -14.347656 18.710938 -15.085938 18.078125 -15.671875 C 17.441406 -16.265625 16.632812 -16.5625 15.65625 -16.5625 L 12.625 -16.5625 L 12.625 -6.609375 C 12.625 -3.953125 13.210938 -1.832031 14.390625 -0.25 L 14.390625 0 L 3.53125 0 L 3.53125 -0.25 C 4.707031 -1.832031 5.296875 -3.953125 5.296875 -6.609375 L 5.296875 -28.734375 C 5.296875 -31.390625 4.707031 -33.507812 3.53125 -35.09375 L 3.53125 -35.34375 L 17.984375 -35.34375 C 21.816406 -35.34375 25.03125 -34.601562 27.625 -33.125 C 30.21875 -31.644531 31.515625 -29.269531 31.515625 -26 C 31.515625 -24.15625 31.023438 -22.578125 30.046875 -21.265625 C 29.066406 -19.953125 27.800781 -18.945312 26.25 -18.25 C 24.707031 -17.5625 23.09375 -17.164062 21.40625 -17.0625 L 21.40625 -16.859375 C 23.09375 -16.796875 24.515625 -16.328125 25.671875 -15.453125 C 26.835938 -14.578125 27.765625 -13.515625 28.453125 -12.265625 C 29.140625 -11.023438 29.804688 -9.53125 30.453125 -7.78125 C 31.191406 -5.726562 31.875 -4.175781 32.5 -3.125 C 33.125 -2.082031 33.890625 -1.5625 34.796875 -1.5625 C 35.398438 -1.5625 35.90625 -1.765625 36.3125 -2.171875 L 36.71875 -1.8125 C 36.28125 -1.101562 35.546875 -0.554688 34.515625 -0.171875 C 33.484375 0.210938 32.363281 0.40625 31.15625 0.40625 Z M 17.015625 -17.828125 C 19.203125 -17.828125 20.898438 -18.554688 22.109375 -20.015625 C 23.328125 -21.484375 23.9375 -23.476562 23.9375 -26 C 23.9375 -28.53125 23.3125 -30.519531 22.0625 -31.96875 C 20.820312 -33.414062 19.070312 -34.140625 16.8125 -34.140625 C 15.300781 -34.140625 13.90625 -33.882812 12.625 -33.375 L 12.625 -17.828125 Z M 17.015625 -17.828125 "/></g></g></g><g fill="#333456" fill-opacity="1"><g transform="translate(155.904049, 329.729396)"><g/></g></g><g fill="#333456" fill-opacity="1"><g transform="translate(170.146664, 329.729396)"><g><path d="M 2.625 -0.296875 C 3.5 -1.304688 4.171875 -2.316406 4.640625 -3.328125 C 5.117188 -4.335938 5.359375 -5.429688 5.359375 -6.609375 L 5.359375 -28.78125 C 5.359375 -29.957031 5.117188 -31.050781 4.640625 -32.0625 C 4.171875 -33.070312 3.5 -34.082031 2.625 -35.09375 L 2.625 -35.34375 L 12.375 -35.34375 L 23.78125 -9.296875 L 35.09375 -35.34375 L 43.625 -35.34375 L 43.625 -35.09375 C 42.445312 -33.507812 41.859375 -31.390625 41.859375 -28.734375 L 41.859375 -6.609375 C 41.859375 -3.953125 42.445312 -1.832031 43.625 -0.25 L 43.625 0 L 32.78125 0 L 32.78125 -0.25 C 33.957031 -1.832031 34.546875 -3.953125 34.546875 -6.609375 L 34.546875 -30.34375 L 21.265625 0 L 20.203125 0 L 6.875 -30.15625 L 6.875 -6.609375 C 6.875 -5.429688 7.109375 -4.335938 7.578125 -3.328125 C 8.046875 -2.316406 8.71875 -1.304688 9.59375 -0.296875 L 9.59375 0 L 2.625 0 Z M 2.625 -0.296875 "/></g></g></g><g fill="#333456" fill-opacity="1"><g transform="translate(218.935176, 329.729396)"><g><path d="M 19.296875 0.65625 C 15.828125 0.65625 12.785156 -0.0976562 10.171875 -1.609375 C 7.566406 -3.128906 5.546875 -5.273438 4.109375 -8.046875 C 2.679688 -10.828125 1.96875 -14.035156 1.96875 -17.671875 C 1.96875 -21.304688 2.679688 -24.515625 4.109375 -27.296875 C 5.546875 -30.078125 7.566406 -32.222656 10.171875 -33.734375 C 12.785156 -35.242188 15.828125 -36 19.296875 -36 C 22.765625 -36 25.800781 -35.242188 28.40625 -33.734375 C 31.007812 -32.222656 33.023438 -30.078125 34.453125 -27.296875 C 35.890625 -24.515625 36.609375 -21.304688 36.609375 -17.671875 C 36.609375 -14.035156 35.890625 -10.828125 34.453125 -8.046875 C 33.023438 -5.273438 31.007812 -3.128906 28.40625 -1.609375 C 25.800781 -0.0976562 22.765625 0.65625 19.296875 0.65625 Z M 19.296875 -0.65625 C 21.273438 -0.65625 22.976562 -1.367188 24.40625 -2.796875 C 25.84375 -4.234375 26.929688 -6.226562 27.671875 -8.78125 C 28.410156 -11.34375 28.78125 -14.304688 28.78125 -17.671875 C 28.78125 -21.035156 28.410156 -24 27.671875 -26.5625 C 26.929688 -29.125 25.84375 -31.117188 24.40625 -32.546875 C 22.976562 -33.972656 21.273438 -34.6875 19.296875 -34.6875 C 17.335938 -34.6875 15.640625 -33.972656 14.203125 -32.546875 C 12.773438 -31.117188 11.679688 -29.125 10.921875 -26.5625 C 10.171875 -24 9.796875 -21.035156 9.796875 -17.671875 C 9.796875 -14.304688 10.171875 -11.34375 10.921875 -8.78125 C 11.679688 -6.226562 12.773438 -4.234375 14.203125 -2.796875 C 15.640625 -1.367188 17.335938 -0.65625 19.296875 -0.65625 Z M 19.296875 -0.65625 "/></g></g></g><g fill="#333456" fill-opacity="1"><g transform="translate(259.137709, 329.729396)"><g><path d="M 31.15625 0.40625 C 29.039062 0.40625 27.320312 -0.0859375 26 -1.078125 C 24.6875 -2.078125 23.691406 -3.257812 23.015625 -4.625 C 22.347656 -5.988281 21.660156 -7.726562 20.953125 -9.84375 C 20.453125 -11.363281 20.003906 -12.566406 19.609375 -13.453125 C 19.222656 -14.347656 18.710938 -15.085938 18.078125 -15.671875 C 17.441406 -16.265625 16.632812 -16.5625 15.65625 -16.5625 L 12.625 -16.5625 L 12.625 -6.609375 C 12.625 -3.953125 13.210938 -1.832031 14.390625 -0.25 L 14.390625 0 L 3.53125 0 L 3.53125 -0.25 C 4.707031 -1.832031 5.296875 -3.953125 5.296875 -6.609375 L 5.296875 -28.734375 C 5.296875 -31.390625 4.707031 -33.507812 3.53125 -35.09375 L 3.53125 -35.34375 L 17.984375 -35.34375 C 21.816406 -35.34375 25.03125 -34.601562 27.625 -33.125 C 30.21875 -31.644531 31.515625 -29.269531 31.515625 -26 C 31.515625 -24.15625 31.023438 -22.578125 30.046875 -21.265625 C 29.066406 -19.953125 27.800781 -18.945312 26.25 -18.25 C 24.707031 -17.5625 23.09375 -17.164062 21.40625 -17.0625 L 21.40625 -16.859375 C 23.09375 -16.796875 24.515625 -16.328125 25.671875 -15.453125 C 26.835938 -14.578125 27.765625 -13.515625 28.453125 -12.265625 C 29.140625 -11.023438 29.804688 -9.53125 30.453125 -7.78125 C 31.191406 -5.726562 31.875 -4.175781 32.5 -3.125 C 33.125 -2.082031 33.890625 -1.5625 34.796875 -1.5625 C 35.398438 -1.5625 35.90625 -1.765625 36.3125 -2.171875 L 36.71875 -1.8125 C 36.28125 -1.101562 35.546875 -0.554688 34.515625 -0.171875 C 33.484375 0.210938 32.363281 0.40625 31.15625 0.40625 Z M 17.015625 -17.828125 C 19.203125 -17.828125 20.898438 -18.554688 22.109375 -20.015625 C 23.328125 -21.484375 23.9375 -23.476562 23.9375 -26 C 23.9375 -28.53125 23.3125 -30.519531 22.0625 -31.96875 C 20.820312 -33.414062 19.070312 -34.140625 16.8125 -34.140625 C 15.300781 -34.140625 13.90625 -33.882812 12.625 -33.375 L 12.625 -17.828125 Z M 17.015625 -17.828125 "/></g></g></g><g fill="#333456" fill-opacity="1"><g transform="translate(297.168489, 329.729396)"><g><path d="M 3.53125 -0.25 C 4.707031 -1.832031 5.296875 -3.953125 5.296875 -6.609375 L 5.296875 -28.734375 C 5.296875 -31.390625 4.707031 -33.507812 3.53125 -35.09375 L 3.53125 -35.34375 L 28.328125 -35.34375 L 29.59375 -25.703125 L 29.09375 -25.703125 C 27.875 -28.492188 26.378906 -30.585938 24.609375 -31.984375 C 22.847656 -33.390625 20.332031 -34.09375 17.0625 -34.09375 L 12.625 -34.09375 L 12.625 -18.4375 L 17.125 -18.4375 C 19.039062 -18.4375 20.546875 -18.890625 21.640625 -19.796875 C 22.734375 -20.703125 23.515625 -22.015625 23.984375 -23.734375 L 24.5 -23.734375 L 24.5 -11.875 L 23.984375 -11.875 C 23.515625 -13.582031 22.734375 -14.890625 21.640625 -15.796875 C 20.546875 -16.710938 19.039062 -17.171875 17.125 -17.171875 L 12.625 -17.171875 L 12.625 -1.265625 L 18.1875 -1.265625 C 21.445312 -1.265625 23.957031 -1.960938 25.71875 -3.359375 C 27.488281 -4.753906 28.984375 -6.847656 30.203125 -9.640625 L 30.703125 -9.640625 L 29.4375 0 L 3.53125 0 Z M 3.53125 -0.25 "/></g></g></g><g fill="#8d97ad" fill-opacity="1"><g transform="translate(136.570166, 371.445882)"><g><path d="M 3.078125 -7.859375 L 5 -7.859375 L 8.015625 0 L 6.21875 0 L 5.546875 -1.796875 L 2.53125 -1.796875 L 1.84375 0 L 0.0625 0 Z M 5 -3.3125 L 4.0625 -5.890625 L 4.015625 -5.890625 L 3.078125 -3.3125 Z M 5 -3.3125 "/></g></g></g><g fill="#8d97ad" fill-opacity="1"><g transform="translate(146.55914, 371.445882)"><g><path d="M 3.25 0.171875 C 2.738281 0.171875 2.296875 0.109375 1.921875 -0.015625 C 1.546875 -0.148438 1.226562 -0.296875 0.96875 -0.453125 C 0.675781 -0.628906 0.425781 -0.832031 0.21875 -1.0625 L 1.34375 -2.1875 C 1.476562 -2.03125 1.640625 -1.890625 1.828125 -1.765625 C 1.984375 -1.660156 2.175781 -1.5625 2.40625 -1.46875 C 2.632812 -1.382812 2.898438 -1.34375 3.203125 -1.34375 C 3.648438 -1.34375 3.972656 -1.425781 4.171875 -1.59375 C 4.378906 -1.769531 4.484375 -1.988281 4.484375 -2.25 C 4.484375 -2.46875 4.382812 -2.640625 4.1875 -2.765625 C 4 -2.898438 3.757812 -3.019531 3.46875 -3.125 C 3.175781 -3.226562 2.859375 -3.335938 2.515625 -3.453125 C 2.179688 -3.566406 1.867188 -3.710938 1.578125 -3.890625 C 1.285156 -4.078125 1.039062 -4.3125 0.84375 -4.59375 C 0.65625 -4.882812 0.5625 -5.257812 0.5625 -5.71875 C 0.5625 -6.03125 0.625 -6.320312 0.75 -6.59375 C 0.882812 -6.875 1.070312 -7.117188 1.3125 -7.328125 C 1.5625 -7.546875 1.863281 -7.710938 2.21875 -7.828125 C 2.570312 -7.953125 2.972656 -8.015625 3.421875 -8.015625 C 3.859375 -8.015625 4.242188 -7.957031 4.578125 -7.84375 C 4.910156 -7.738281 5.179688 -7.617188 5.390625 -7.484375 C 5.648438 -7.328125 5.875 -7.148438 6.0625 -6.953125 L 4.9375 -5.828125 C 4.8125 -5.960938 4.679688 -6.078125 4.546875 -6.171875 C 4.421875 -6.253906 4.265625 -6.328125 4.078125 -6.390625 C 3.898438 -6.460938 3.703125 -6.5 3.484375 -6.5 C 3.054688 -6.5 2.75 -6.425781 2.5625 -6.28125 C 2.382812 -6.132812 2.296875 -5.945312 2.296875 -5.71875 C 2.296875 -5.5 2.394531 -5.320312 2.59375 -5.1875 C 2.789062 -5.0625 3.035156 -4.941406 3.328125 -4.828125 C 3.617188 -4.722656 3.929688 -4.613281 4.265625 -4.5 C 4.597656 -4.394531 4.910156 -4.25 5.203125 -4.0625 C 5.492188 -3.882812 5.734375 -3.648438 5.921875 -3.359375 C 6.117188 -3.066406 6.21875 -2.695312 6.21875 -2.25 C 6.21875 -1.925781 6.148438 -1.617188 6.015625 -1.328125 C 5.890625 -1.035156 5.695312 -0.773438 5.4375 -0.546875 C 5.175781 -0.328125 4.863281 -0.148438 4.5 -0.015625 C 4.132812 0.109375 3.71875 0.171875 3.25 0.171875 Z M 3.25 0.171875 "/></g></g></g><g fill="#8d97ad" fill-opacity="1"><g transform="translate(155.032931, 371.445882)"><g><path d="M 3.078125 -7.859375 L 5 -7.859375 L 8.015625 0 L 6.21875 0 L 5.546875 -1.796875 L 2.53125 -1.796875 L 1.84375 0 L 0.0625 0 Z M 5 -3.3125 L 4.0625 -5.890625 L 4.015625 -5.890625 L 3.078125 -3.3125 Z M 5 -3.3125 "/></g></g></g><g fill="#8d97ad" fill-opacity="1"><g transform="translate(165.021904, 371.445882)"><g><path d="M 4.765625 0.171875 C 4.160156 0.171875 3.597656 0.0625 3.078125 -0.15625 C 2.554688 -0.375 2.101562 -0.664062 1.71875 -1.03125 C 1.34375 -1.40625 1.046875 -1.835938 0.828125 -2.328125 C 0.609375 -2.828125 0.5 -3.359375 0.5 -3.921875 C 0.5 -4.484375 0.609375 -5.015625 0.828125 -5.515625 C 1.046875 -6.015625 1.34375 -6.445312 1.71875 -6.8125 C 2.101562 -7.1875 2.554688 -7.476562 3.078125 -7.6875 C 3.597656 -7.90625 4.160156 -8.015625 4.765625 -8.015625 C 5.316406 -8.015625 5.796875 -7.929688 6.203125 -7.765625 C 6.617188 -7.609375 6.96875 -7.429688 7.25 -7.234375 C 7.570312 -7.003906 7.847656 -6.742188 8.078125 -6.453125 L 6.953125 -5.328125 C 6.785156 -5.535156 6.597656 -5.722656 6.390625 -5.890625 C 6.203125 -6.035156 5.972656 -6.164062 5.703125 -6.28125 C 5.429688 -6.394531 5.117188 -6.453125 4.765625 -6.453125 C 4.410156 -6.453125 4.082031 -6.382812 3.78125 -6.25 C 3.476562 -6.125 3.210938 -5.945312 2.984375 -5.71875 C 2.753906 -5.488281 2.570312 -5.21875 2.4375 -4.90625 C 2.3125 -4.601562 2.25 -4.273438 2.25 -3.921875 C 2.25 -3.578125 2.3125 -3.25 2.4375 -2.9375 C 2.570312 -2.632812 2.753906 -2.367188 2.984375 -2.140625 C 3.210938 -1.910156 3.476562 -1.726562 3.78125 -1.59375 C 4.082031 -1.46875 4.410156 -1.40625 4.765625 -1.40625 C 5.128906 -1.40625 5.445312 -1.460938 5.71875 -1.578125 C 6 -1.691406 6.238281 -1.820312 6.4375 -1.96875 C 6.664062 -2.125 6.859375 -2.3125 7.015625 -2.53125 L 8.140625 -1.40625 C 7.898438 -1.113281 7.617188 -0.847656 7.296875 -0.609375 C 7.003906 -0.421875 6.648438 -0.242188 6.234375 -0.078125 C 5.816406 0.0859375 5.328125 0.171875 4.765625 0.171875 Z M 4.765625 0.171875 "/></g></g></g><g fill="#8d97ad" fill-opacity="1"><g transform="translate(175.291469, 371.445882)"><g/></g></g><g fill="#8d97ad" fill-opacity="1"><g transform="translate(179.556419, 371.445882)"><g><path d="M 3.25 0.171875 C 2.738281 0.171875 2.296875 0.109375 1.921875 -0.015625 C 1.546875 -0.148438 1.226562 -0.296875 0.96875 -0.453125 C 0.675781 -0.628906 0.425781 -0.832031 0.21875 -1.0625 L 1.34375 -2.1875 C 1.476562 -2.03125 1.640625 -1.890625 1.828125 -1.765625 C 1.984375 -1.660156 2.175781 -1.5625 2.40625 -1.46875 C 2.632812 -1.382812 2.898438 -1.34375 3.203125 -1.34375 C 3.648438 -1.34375 3.972656 -1.425781 4.171875 -1.59375 C 4.378906 -1.769531 4.484375 -1.988281 4.484375 -2.25 C 4.484375 -2.46875 4.382812 -2.640625 4.1875 -2.765625 C 4 -2.898438 3.757812 -3.019531 3.46875 -3.125 C 3.175781 -3.226562 2.859375 -3.335938 2.515625 -3.453125 C 2.179688 -3.566406 1.867188 -3.710938 1.578125 -3.890625 C 1.285156 -4.078125 1.039062 -4.3125 0.84375 -4.59375 C 0.65625 -4.882812 0.5625 -5.257812 0.5625 -5.71875 C 0.5625 -6.03125 0.625 -6.320312 0.75 -6.59375 C 0.882812 -6.875 1.070312 -7.117188 1.3125 -7.328125 C 1.5625 -7.546875 1.863281 -7.710938 2.21875 -7.828125 C 2.570312 -7.953125 2.972656 -8.015625 3.421875 -8.015625 C 3.859375 -8.015625 4.242188 -7.957031 4.578125 -7.84375 C 4.910156 -7.738281 5.179688 -7.617188 5.390625 -7.484375 C 5.648438 -7.328125 5.875 -7.148438 6.0625 -6.953125 L 4.9375 -5.828125 C 4.8125 -5.960938 4.679688 -6.078125 4.546875 -6.171875 C 4.421875 -6.253906 4.265625 -6.328125 4.078125 -6.390625 C 3.898438 -6.460938 3.703125 -6.5 3.484375 -6.5 C 3.054688 -6.5 2.75 -6.425781 2.5625 -6.28125 C 2.382812 -6.132812 2.296875 -5.945312 2.296875 -5.71875 C 2.296875 -5.5 2.394531 -5.320312 2.59375 -5.1875 C 2.789062 -5.0625 3.035156 -4.941406 3.328125 -4.828125 C 3.617188 -4.722656 3.929688 -4.613281 4.265625 -4.5 C 4.597656 -4.394531 4.910156 -4.25 5.203125 -4.0625 C 5.492188 -3.882812 5.734375 -3.648438 5.921875 -3.359375 C 6.117188 -3.066406 6.21875 -2.695312 6.21875 -2.25 C 6.21875 -1.925781 6.148438 -1.617188 6.015625 -1.328125 C 5.890625 -1.035156 5.695312 -0.773438 5.4375 -0.546875 C 5.175781 -0.328125 4.863281 -0.148438 4.5 -0.015625 C 4.132812 0.109375 3.71875 0.171875 3.25 0.171875 Z M 3.25 0.171875 "/></g></g></g><g fill="#8d97ad" fill-opacity="1"><g transform="translate(188.030211, 371.445882)"><g><path d="M 4.765625 0.171875 C 4.160156 0.171875 3.597656 0.0625 3.078125 -0.15625 C 2.554688 -0.375 2.101562 -0.664062 1.71875 -1.03125 C 1.34375 -1.40625 1.046875 -1.835938 0.828125 -2.328125 C 0.609375 -2.828125 0.5 -3.359375 0.5 -3.921875 C 0.5 -4.484375 0.609375 -5.015625 0.828125 -5.515625 C 1.046875 -6.015625 1.34375 -6.445312 1.71875 -6.8125 C 2.101562 -7.1875 2.554688 -7.476562 3.078125 -7.6875 C 3.597656 -7.90625 4.160156 -8.015625 4.765625 -8.015625 C 5.316406 -8.015625 5.796875 -7.929688 6.203125 -7.765625 C 6.617188 -7.609375 6.96875 -7.429688 7.25 -7.234375 C 7.570312 -7.003906 7.847656 -6.742188 8.078125 -6.453125 L 6.953125 -5.328125 C 6.785156 -5.535156 6.597656 -5.722656 6.390625 -5.890625 C 6.203125 -6.035156 5.972656 -6.164062 5.703125 -6.28125 C 5.429688 -6.394531 5.117188 -6.453125 4.765625 -6.453125 C 4.410156 -6.453125 4.082031 -6.382812 3.78125 -6.25 C 3.476562 -6.125 3.210938 -5.945312 2.984375 -5.71875 C 2.753906 -5.488281 2.570312 -5.21875 2.4375 -4.90625 C 2.3125 -4.601562 2.25 -4.273438 2.25 -3.921875 C 2.25 -3.578125 2.3125 -3.25 2.4375 -2.9375 C 2.570312 -2.632812 2.753906 -2.367188 2.984375 -2.140625 C 3.210938 -1.910156 3.476562 -1.726562 3.78125 -1.59375 C 4.082031 -1.46875 4.410156 -1.40625 4.765625 -1.40625 C 5.128906 -1.40625 5.445312 -1.460938 5.71875 -1.578125 C 6 -1.691406 6.238281 -1.820312 6.4375 -1.96875 C 6.664062 -2.125 6.859375 -2.3125 7.015625 -2.53125 L 8.140625 -1.40625 C 7.898438 -1.113281 7.617188 -0.847656 7.296875 -0.609375 C 7.003906 -0.421875 6.648438 -0.242188 6.234375 -0.078125 C 5.816406 0.0859375 5.328125 0.171875 4.765625 0.171875 Z M 4.765625 0.171875 "/></g></g></g><g fill="#8d97ad" fill-opacity="1"><g transform="translate(198.299772, 371.445882)"><g><path d="M 1.015625 -7.859375 L 2.6875 -7.859375 L 2.6875 -4.765625 L 6.0625 -4.765625 L 6.0625 -7.859375 L 7.734375 -7.859375 L 7.734375 0 L 6.0625 0 L 6.0625 -3.203125 L 2.6875 -3.203125 L 2.6875 0 L 1.015625 0 Z M 1.015625 -7.859375 "/></g></g></g><g fill="#8d97ad" fill-opacity="1"><g transform="translate(208.962158, 371.445882)"><g><path d="M 4.765625 0.171875 C 4.160156 0.171875 3.597656 0.0625 3.078125 -0.15625 C 2.554688 -0.375 2.101562 -0.664062 1.71875 -1.03125 C 1.34375 -1.40625 1.046875 -1.835938 0.828125 -2.328125 C 0.609375 -2.828125 0.5 -3.359375 0.5 -3.921875 C 0.5 -4.484375 0.609375 -5.015625 0.828125 -5.515625 C 1.046875 -6.015625 1.34375 -6.445312 1.71875 -6.8125 C 2.101562 -7.1875 2.554688 -7.476562 3.078125 -7.6875 C 3.597656 -7.90625 4.160156 -8.015625 4.765625 -8.015625 C 5.367188 -8.015625 5.929688 -7.90625 6.453125 -7.6875 C 6.972656 -7.476562 7.421875 -7.1875 7.796875 -6.8125 C 8.179688 -6.445312 8.484375 -6.015625 8.703125 -5.515625 C 8.921875 -5.015625 9.03125 -4.484375 9.03125 -3.921875 C 9.03125 -3.359375 8.921875 -2.828125 8.703125 -2.328125 C 8.484375 -1.835938 8.179688 -1.40625 7.796875 -1.03125 C 7.421875 -0.664062 6.972656 -0.375 6.453125 -0.15625 C 5.929688 0.0625 5.367188 0.171875 4.765625 0.171875 Z M 4.765625 -1.40625 C 5.117188 -1.40625 5.445312 -1.46875 5.75 -1.59375 C 6.0625 -1.726562 6.332031 -1.910156 6.5625 -2.140625 C 6.789062 -2.367188 6.96875 -2.632812 7.09375 -2.9375 C 7.226562 -3.25 7.296875 -3.578125 7.296875 -3.921875 C 7.296875 -4.273438 7.226562 -4.601562 7.09375 -4.90625 C 6.96875 -5.21875 6.789062 -5.488281 6.5625 -5.71875 C 6.332031 -5.945312 6.0625 -6.125 5.75 -6.25 C 5.445312 -6.382812 5.117188 -6.453125 4.765625 -6.453125 C 4.410156 -6.453125 4.082031 -6.382812 3.78125 -6.25 C 3.476562 -6.125 3.210938 -5.945312 2.984375 -5.71875 C 2.753906 -5.488281 2.570312 -5.21875 2.4375 -4.90625 C 2.3125 -4.601562 2.25 -4.273438 2.25 -3.921875 C 2.25 -3.578125 2.3125 -3.25 2.4375 -2.9375 C 2.570312 -2.632812 2.753906 -2.367188 2.984375 -2.140625 C 3.210938 -1.910156 3.476562 -1.726562 3.78125 -1.59375 C 4.082031 -1.46875 4.410156 -1.40625 4.765625 -1.40625 Z M 4.765625 -1.40625 "/></g></g></g><g fill="#8d97ad" fill-opacity="1"><g transform="translate(220.4102, 371.445882)"><g><path d="M 4.765625 0.171875 C 4.160156 0.171875 3.597656 0.0625 3.078125 -0.15625 C 2.554688 -0.375 2.101562 -0.664062 1.71875 -1.03125 C 1.34375 -1.40625 1.046875 -1.835938 0.828125 -2.328125 C 0.609375 -2.828125 0.5 -3.359375 0.5 -3.921875 C 0.5 -4.484375 0.609375 -5.015625 0.828125 -5.515625 C 1.046875 -6.015625 1.34375 -6.445312 1.71875 -6.8125 C 2.101562 -7.1875 2.554688 -7.476562 3.078125 -7.6875 C 3.597656 -7.90625 4.160156 -8.015625 4.765625 -8.015625 C 5.367188 -8.015625 5.929688 -7.90625 6.453125 -7.6875 C 6.972656 -7.476562 7.421875 -7.1875 7.796875 -6.8125 C 8.179688 -6.445312 8.484375 -6.015625 8.703125 -5.515625 C 8.921875 -5.015625 9.03125 -4.484375 9.03125 -3.921875 C 9.03125 -3.359375 8.921875 -2.828125 8.703125 -2.328125 C 8.484375 -1.835938 8.179688 -1.40625 7.796875 -1.03125 C 7.421875 -0.664062 6.972656 -0.375 6.453125 -0.15625 C 5.929688 0.0625 5.367188 0.171875 4.765625 0.171875 Z M 4.765625 -1.40625 C 5.117188 -1.40625 5.445312 -1.46875 5.75 -1.59375 C 6.0625 -1.726562 6.332031 -1.910156 6.5625 -2.140625 C 6.789062 -2.367188 6.96875 -2.632812 7.09375 -2.9375 C 7.226562 -3.25 7.296875 -3.578125 7.296875 -3.921875 C 7.296875 -4.273438 7.226562 -4.601562 7.09375 -4.90625 C 6.96875 -5.21875 6.789062 -5.488281 6.5625 -5.71875 C 6.332031 -5.945312 6.0625 -6.125 5.75 -6.25 C 5.445312 -6.382812 5.117188 -6.453125 4.765625 -6.453125 C 4.410156 -6.453125 4.082031 -6.382812 3.78125 -6.25 C 3.476562 -6.125 3.210938 -5.945312 2.984375 -5.71875 C 2.753906 -5.488281 2.570312 -5.21875 2.4375 -4.90625 C 2.3125 -4.601562 2.25 -4.273438 2.25 -3.921875 C 2.25 -3.578125 2.3125 -3.25 2.4375 -2.9375 C 2.570312 -2.632812 2.753906 -2.367188 2.984375 -2.140625 C 3.210938 -1.910156 3.476562 -1.726562 3.78125 -1.59375 C 4.082031 -1.46875 4.410156 -1.40625 4.765625 -1.40625 Z M 4.765625 -1.40625 "/></g></g></g><g fill="#8d97ad" fill-opacity="1"><g transform="translate(231.858242, 371.445882)"><g><path d="M 1.015625 -7.859375 L 2.6875 -7.859375 L 2.6875 -1.578125 L 6.34375 -1.578125 L 6.34375 0 L 1.015625 0 Z M 1.015625 -7.859375 "/></g></g></g></svg>