<svg xmlns="http://www.w3.org/2000/svg" xmlns:xlink="http://www.w3.org/1999/xlink" width="500" zoomAndPan="magnify" viewBox="0 0 375 374.999991" height="500" preserveAspectRatio="xMidYMid meet" version="1.0"><defs><clipPath id="4c6d5d4575"><path d="M 32 4.453125 L 343 4.453125 L 343 170 L 32 170 Z M 32 4.453125 " clip-rule="nonzero"/></clipPath><clipPath id="e78f3e26ee"><path d="M 164 56 L 375 56 L 375 370.453125 L 164 370.453125 Z M 164 56 " clip-rule="nonzero"/></clipPath></defs><rect x="-37.5" width="450" fill="#ffffff" y="-37.499999" height="449.999989" fill-opacity="1"/><rect x="-37.5" width="450" fill="#ffffff" y="-37.499999" height="449.999989" fill-opacity="1"/><rect x="-37.5" width="450" fill="#333456" y="-37.499999" height="449.999989" fill-opacity="1"/><path fill="#f8f3e8" d="M 153.835938 150.746094 C 153.835938 169.335938 168.90625 184.402344 187.496094 184.402344 C 206.089844 184.402344 221.160156 169.335938 221.160156 150.746094 C 221.160156 132.160156 206.089844 117.09375 187.496094 117.09375 C 168.90625 117.09375 153.835938 132.160156 153.835938 150.746094 " fill-opacity="1" fill-rule="nonzero"/><g clip-path="url(#4c6d5d4575)"><path fill="#f8f3e8" d="M 187.496094 24.421875 C 105.039062 24.421875 37.609375 88.683594 32.554688 169.851562 C 32.351562 166.601562 32.238281 163.332031 32.238281 160.035156 C 32.238281 74.304688 101.75 4.816406 187.496094 4.816406 C 273.246094 4.816406 342.753906 74.304688 342.753906 160.035156 C 342.753906 163.332031 342.648438 166.601562 342.441406 169.851562 C 337.390625 88.683594 269.957031 24.421875 187.496094 24.421875 " fill-opacity="1" fill-rule="nonzero"/></g><path fill="#f8f3e8" d="M 112.332031 108.746094 L 187.496094 70.097656 L 262.664062 108.746094 L 224.105469 113.808594 L 224.105469 146.421875 L 150.894531 146.421875 L 150.894531 113.808594 L 141.742188 112.613281 L 141.742188 133 C 141.742188 134.542969 140.492188 135.796875 138.945312 135.796875 C 137.398438 135.796875 136.140625 134.542969 136.140625 133 L 136.140625 111.875 L 112.332031 108.746094 " fill-opacity="1" fill-rule="nonzero"/><g clip-path="url(#e78f3e26ee)"><path fill="#f8f3e8" d="M 164.953125 327.367188 C 164.996094 322.78125 165.179688 319.570312 165.304688 318.261719 C 169.128906 276.660156 184.445312 236.808594 209.507812 203.035156 C 227.335938 178.996094 279.273438 134.988281 297.535156 83.015625 C 294.007812 123.621094 270.390625 162.703125 242.113281 203.035156 C 213.320312 244.101562 245.527344 318.765625 245.527344 318.765625 C 311.6875 294.992188 359.007812 231.703125 359.007812 157.371094 C 359.007812 119.507812 346.71875 84.523438 325.933594 56.15625 C 356.402344 89.488281 375 133.863281 375 182.574219 C 375 270.574219 314.355469 344.398438 232.574219 364.578125 C 218.136719 368.140625 203.039062 370.027344 187.496094 370.027344 C 181.027344 370.027344 174.640625 369.699219 168.339844 369.066406 C 165.382812 352.28125 164.863281 336.867188 164.953125 327.367188 " fill-opacity="1" fill-rule="nonzero"/></g><path fill="#c59035" d="M 151.398438 327.234375 C 151.445312 322.347656 151.644531 318.722656 151.8125 316.960938 C 154.785156 284.628906 164.328125 253.253906 179.734375 224.667969 C 175.410156 217.226562 170.664062 210 165.5 203.035156 C 147.660156 179.003906 95.726562 134.996094 77.464844 83.023438 C 80.992188 123.621094 104.605469 162.703125 132.882812 203.035156 C 161.683594 244.109375 129.476562 318.765625 129.476562 318.765625 C 63.3125 294.992188 15.996094 231.707031 15.996094 157.378906 C 15.996094 119.507812 28.28125 84.523438 49.066406 56.15625 C 18.59375 89.488281 0.00390625 133.863281 0.00390625 182.582031 C 0.00390625 270.574219 60.640625 344.398438 142.421875 364.578125 C 146.324219 365.539062 150.277344 366.378906 154.273438 367.089844 C 151.628906 350.054688 151.324219 335.011719 151.398438 327.234375 " fill-opacity="1" fill-rule="nonzero"/></svg>