<svg xmlns="http://www.w3.org/2000/svg" xmlns:xlink="http://www.w3.org/1999/xlink" width="500" zoomAndPan="magnify" viewBox="0 0 375 374.999991" height="500" preserveAspectRatio="xMidYMid meet" version="1.0"><defs><g/><clipPath id="cf015023f8"><path d="M 125 95.242188 L 250 95.242188 L 250 162 L 125 162 Z M 125 95.242188 " clip-rule="nonzero"/></clipPath><clipPath id="1873a8c40b"><path d="M 178 115 L 262.5 115 L 262.5 241.492188 L 178 241.492188 Z M 178 115 " clip-rule="nonzero"/></clipPath><clipPath id="40538987f3"><path d="M 112.5 115 L 185 115 L 185 241 L 112.5 241 Z M 112.5 115 " clip-rule="nonzero"/></clipPath></defs><rect x="-37.5" width="450" fill="#ffffff" y="-37.499999" height="449.999989" fill-opacity="1"/><rect x="-37.5" width="450" fill="#ffffff" y="-37.499999" height="449.999989" fill-opacity="1"/><rect x="-37.5" width="450" fill="#333456" y="-37.499999" height="449.999989" fill-opacity="1"/><path fill="#f8f3e8" d="M 174.035156 153.699219 C 174.035156 161.125 180.0625 167.144531 187.5 167.144531 C 194.9375 167.144531 200.964844 161.125 200.964844 153.699219 C 200.964844 146.269531 194.9375 140.25 187.5 140.25 C 180.0625 140.25 174.035156 146.269531 174.035156 153.699219 " fill-opacity="1" fill-rule="nonzero"/><g clip-path="url(#cf015023f8)"><path fill="#f8f3e8" d="M 187.5 103.21875 C 154.515625 103.21875 127.542969 128.898438 125.523438 161.332031 C 125.441406 160.035156 125.394531 158.726562 125.394531 157.410156 C 125.394531 123.152344 153.199219 95.386719 187.5 95.386719 C 221.796875 95.386719 249.601562 123.152344 249.601562 157.410156 C 249.601562 158.726562 249.558594 160.035156 249.476562 161.332031 C 247.457031 128.898438 220.484375 103.21875 187.5 103.21875 " fill-opacity="1" fill-rule="nonzero"/></g><path fill="#f8f3e8" d="M 157.433594 136.914062 L 187.5 121.472656 L 217.566406 136.914062 L 202.144531 138.9375 L 202.144531 151.96875 L 172.855469 151.96875 L 172.855469 138.9375 L 169.199219 138.460938 L 169.199219 146.605469 C 169.199219 147.222656 168.695312 147.726562 168.078125 147.726562 C 167.457031 147.726562 166.957031 147.222656 166.957031 146.605469 L 166.957031 138.164062 L 157.433594 136.914062 " fill-opacity="1" fill-rule="nonzero"/><g clip-path="url(#1873a8c40b)"><path fill="#f8f3e8" d="M 178.480469 224.273438 C 178.5 222.441406 178.570312 221.15625 178.621094 220.636719 C 180.152344 204.011719 186.277344 188.089844 196.300781 174.59375 C 203.433594 164.988281 224.210938 147.402344 231.515625 126.632812 C 230.101562 142.859375 220.65625 158.476562 209.34375 174.59375 C 197.828125 191.003906 210.710938 220.835938 210.710938 220.835938 C 237.175781 211.335938 256.101562 186.046875 256.101562 156.34375 C 256.101562 141.214844 251.1875 127.238281 242.875 115.902344 C 255.0625 129.21875 262.5 146.953125 262.5 166.417969 C 262.5 201.578125 238.242188 231.078125 205.53125 239.144531 C 199.753906 240.566406 193.714844 241.320312 187.5 241.320312 C 184.910156 241.320312 182.355469 241.191406 179.835938 240.9375 C 178.652344 234.230469 178.445312 228.070312 178.480469 224.273438 " fill-opacity="1" fill-rule="nonzero"/></g><g clip-path="url(#40538987f3)"><path fill="#c59035" d="M 173.058594 224.21875 C 173.078125 222.269531 173.15625 220.820312 173.226562 220.117188 C 174.414062 207.195312 178.230469 194.660156 184.394531 183.238281 C 182.664062 180.261719 180.765625 177.375 178.699219 174.59375 C 171.566406 164.988281 150.789062 147.402344 143.484375 126.636719 C 144.898438 142.859375 154.34375 158.476562 165.652344 174.59375 C 177.171875 191.003906 164.289062 220.835938 164.289062 220.835938 C 137.824219 211.335938 118.898438 186.046875 118.898438 156.347656 C 118.898438 141.214844 123.8125 127.238281 132.125 115.902344 C 119.9375 129.21875 112.5 146.953125 112.5 166.417969 C 112.5 201.578125 136.757812 231.078125 169.46875 239.144531 C 171.03125 239.527344 172.609375 239.863281 174.210938 240.144531 C 173.152344 233.339844 173.03125 227.328125 173.058594 224.21875 " fill-opacity="1" fill-rule="nonzero"/></g><g fill="#f8f3e8" fill-opacity="1"><g transform="translate(110.232995, 111.58777)"><g><path d="M 3.71875 -4.34375 C 3.175781 -3.65625 2.582031 -3.054688 1.9375 -2.546875 C 1.289062 -2.046875 0.726562 -1.679688 0.25 -1.453125 L -2.734375 -3.78125 L -2.625 -3.9375 C -1.363281 -3.476562 -0.179688 -3.332031 0.921875 -3.5 C 2.035156 -3.675781 2.890625 -4.148438 3.484375 -4.921875 C 3.960938 -5.535156 4.164062 -6.15625 4.09375 -6.78125 C 4.03125 -7.40625 3.734375 -7.925781 3.203125 -8.34375 C 2.640625 -8.78125 2.039062 -8.90625 1.40625 -8.71875 C 0.769531 -8.53125 0.0078125 -8.128906 -0.875 -7.515625 C -1.6875 -6.941406 -2.394531 -6.519531 -3 -6.25 C -3.601562 -5.976562 -4.222656 -5.863281 -4.859375 -5.90625 C -5.503906 -5.945312 -6.164062 -6.238281 -6.84375 -6.78125 C -7.425781 -7.226562 -7.835938 -7.789062 -8.078125 -8.46875 C -8.328125 -9.15625 -8.363281 -9.890625 -8.1875 -10.671875 C -8.019531 -11.453125 -7.644531 -12.210938 -7.0625 -12.953125 C -6.613281 -13.523438 -6.101562 -14.039062 -5.53125 -14.5 C -4.96875 -14.96875 -4.472656 -15.3125 -4.046875 -15.53125 L -1.28125 -13.375 L -1.390625 -13.21875 C -2.597656 -13.59375 -3.675781 -13.710938 -4.625 -13.578125 C -5.582031 -13.453125 -6.335938 -13.035156 -6.890625 -12.328125 C -7.304688 -11.785156 -7.5 -11.21875 -7.46875 -10.625 C -7.445312 -10.03125 -7.179688 -9.535156 -6.671875 -9.140625 C -6.140625 -8.734375 -5.5625 -8.632812 -4.9375 -8.84375 C -4.3125 -9.050781 -3.492188 -9.488281 -2.484375 -10.15625 C -1.703125 -10.675781 -1.023438 -11.066406 -0.453125 -11.328125 C 0.117188 -11.585938 0.742188 -11.695312 1.421875 -11.65625 C 2.097656 -11.613281 2.785156 -11.320312 3.484375 -10.78125 C 4.117188 -10.28125 4.5625 -9.679688 4.8125 -8.984375 C 5.070312 -8.296875 5.109375 -7.546875 4.921875 -6.734375 C 4.734375 -5.929688 4.332031 -5.132812 3.71875 -4.34375 Z M 3.71875 -4.34375 "/></g></g></g><g fill="#f8f3e8" fill-opacity="1"><g transform="translate(118.35356, 101.304459)"><g><path d="M 5.28125 -4.6875 C 4.394531 -3.832031 3.40625 -3.285156 2.3125 -3.046875 C 1.21875 -2.804688 0.125 -2.867188 -0.96875 -3.234375 C -2.0625 -3.609375 -3.054688 -4.265625 -3.953125 -5.203125 C -4.890625 -6.179688 -5.503906 -7.265625 -5.796875 -8.453125 C -6.097656 -9.648438 -6.070312 -10.832031 -5.71875 -12 C -5.363281 -13.175781 -4.707031 -14.222656 -3.75 -15.140625 C -3.164062 -15.703125 -2.554688 -16.160156 -1.921875 -16.515625 C -1.285156 -16.878906 -0.726562 -17.132812 -0.25 -17.28125 L 2.1875 -14.703125 L 2.046875 -14.578125 C 1.023438 -15.128906 -0.0195312 -15.394531 -1.09375 -15.375 C -2.175781 -15.351562 -3.09375 -14.988281 -3.84375 -14.28125 C -4.394531 -13.75 -4.734375 -13.132812 -4.859375 -12.4375 C -4.984375 -11.75 -4.894531 -11.007812 -4.59375 -10.21875 C -4.289062 -9.4375 -3.769531 -8.65625 -3.03125 -7.875 C -2.238281 -7.050781 -1.375 -6.453125 -0.4375 -6.078125 C 0.488281 -5.710938 1.410156 -5.601562 2.328125 -5.75 C 3.253906 -5.90625 4.070312 -6.320312 4.78125 -7 C 5.414062 -7.601562 5.820312 -8.296875 6 -9.078125 C 6.175781 -9.867188 6.109375 -10.710938 5.796875 -11.609375 L 5.9375 -11.75 C 6.445312 -11.019531 6.769531 -10.234375 6.90625 -9.390625 C 7.050781 -8.546875 6.992188 -7.71875 6.734375 -6.90625 C 6.472656 -6.09375 5.988281 -5.351562 5.28125 -4.6875 Z M 5.28125 -4.6875 "/></g></g></g><g fill="#f8f3e8" fill-opacity="1"><g transform="translate(128.713923, 91.472595)"><g><path d="M 1.046875 -0.828125 C 1.085938 -1.566406 0.828125 -2.351562 0.265625 -3.1875 L -4.421875 -10.078125 C -4.984375 -10.898438 -5.617188 -11.429688 -6.328125 -11.671875 L -6.375 -11.75 L -2.984375 -14.046875 L -2.9375 -13.96875 C -2.96875 -13.226562 -2.703125 -12.445312 -2.140625 -11.625 L -0.046875 -8.546875 L 4.578125 -11.6875 L 2.484375 -14.765625 C 1.921875 -15.585938 1.285156 -16.117188 0.578125 -16.359375 L 0.53125 -16.4375 L 3.90625 -18.71875 L 3.953125 -18.640625 C 3.921875 -17.910156 4.1875 -17.132812 4.75 -16.3125 L 9.4375 -9.421875 C 10 -8.585938 10.628906 -8.046875 11.328125 -7.796875 L 11.375 -7.71875 L 8 -5.4375 L 7.953125 -5.515625 C 7.992188 -6.253906 7.734375 -7.039062 7.171875 -7.875 L 4.84375 -11.28125 L 0.21875 -8.140625 L 2.546875 -4.734375 C 3.109375 -3.898438 3.738281 -3.363281 4.4375 -3.125 L 4.484375 -3.046875 L 1.09375 -0.75 Z M 1.046875 -0.828125 "/></g></g></g><g fill="#f8f3e8" fill-opacity="1"><g transform="translate(142.519832, 82.287915)"><g><path d="M 6.734375 -2.75 C 5.535156 -2.207031 4.367188 -2 3.234375 -2.125 C 2.109375 -2.25 1.085938 -2.671875 0.171875 -3.390625 C -0.742188 -4.117188 -1.488281 -5.113281 -2.0625 -6.375 C -2.613281 -7.613281 -2.859375 -8.820312 -2.796875 -10 C -2.734375 -11.175781 -2.367188 -12.222656 -1.703125 -13.140625 C -1.046875 -14.066406 -0.117188 -14.800781 1.078125 -15.34375 C 2.265625 -15.875 3.421875 -16.078125 4.546875 -15.953125 C 5.671875 -15.835938 6.695312 -15.410156 7.625 -14.671875 C 8.550781 -13.941406 9.289062 -12.957031 9.84375 -11.71875 C 10.414062 -10.457031 10.664062 -9.242188 10.59375 -8.078125 C 10.519531 -6.910156 10.15625 -5.863281 9.5 -4.9375 C 8.84375 -4.007812 7.921875 -3.28125 6.734375 -2.75 Z M 6.515625 -3.21875 C 7.191406 -3.519531 7.664062 -4.023438 7.9375 -4.734375 C 8.21875 -5.441406 8.285156 -6.289062 8.140625 -7.28125 C 7.992188 -8.269531 7.660156 -9.347656 7.140625 -10.515625 C 6.628906 -11.660156 6.050781 -12.613281 5.40625 -13.375 C 4.757812 -14.144531 4.078125 -14.664062 3.359375 -14.9375 C 2.648438 -15.207031 1.957031 -15.191406 1.28125 -14.890625 C 0.601562 -14.578125 0.128906 -14.066406 -0.140625 -13.359375 C -0.410156 -12.648438 -0.476562 -11.796875 -0.34375 -10.796875 C -0.207031 -9.804688 0.113281 -8.738281 0.625 -7.59375 C 1.144531 -6.425781 1.734375 -5.460938 2.390625 -4.703125 C 3.046875 -3.941406 3.726562 -3.425781 4.4375 -3.15625 C 5.144531 -2.882812 5.835938 -2.90625 6.515625 -3.21875 Z M 6.515625 -3.21875 "/></g></g></g><g fill="#f8f3e8" fill-opacity="1"><g transform="translate(157.193127, 75.837041)"><g><path d="M 7.09375 -1.578125 C 5.820312 -1.242188 4.640625 -1.234375 3.546875 -1.546875 C 2.460938 -1.859375 1.53125 -2.453125 0.75 -3.328125 C -0.03125 -4.203125 -0.59375 -5.304688 -0.9375 -6.640625 C -1.269531 -7.960938 -1.304688 -9.195312 -1.046875 -10.34375 C -0.785156 -11.488281 -0.253906 -12.457031 0.546875 -13.25 C 1.359375 -14.039062 2.398438 -14.601562 3.671875 -14.9375 C 4.929688 -15.257812 6.109375 -15.265625 7.203125 -14.953125 C 8.296875 -14.640625 9.234375 -14.046875 10.015625 -13.171875 C 10.796875 -12.296875 11.351562 -11.195312 11.6875 -9.875 C 12.03125 -8.539062 12.070312 -7.300781 11.8125 -6.15625 C 11.550781 -5.007812 11.015625 -4.039062 10.203125 -3.25 C 9.390625 -2.457031 8.351562 -1.898438 7.09375 -1.578125 Z M 6.96875 -2.046875 C 7.6875 -2.222656 8.238281 -2.640625 8.625 -3.296875 C 9.019531 -3.953125 9.226562 -4.78125 9.25 -5.78125 C 9.28125 -6.78125 9.140625 -7.898438 8.828125 -9.140625 C 8.515625 -10.359375 8.101562 -11.398438 7.59375 -12.265625 C 7.09375 -13.128906 6.515625 -13.753906 5.859375 -14.140625 C 5.203125 -14.523438 4.515625 -14.628906 3.796875 -14.453125 C 3.085938 -14.265625 2.535156 -13.84375 2.140625 -13.1875 C 1.753906 -12.53125 1.539062 -11.703125 1.5 -10.703125 C 1.46875 -9.703125 1.609375 -8.59375 1.921875 -7.375 C 2.234375 -6.132812 2.644531 -5.082031 3.15625 -4.21875 C 3.675781 -3.351562 4.265625 -2.726562 4.921875 -2.34375 C 5.578125 -1.957031 6.257812 -1.859375 6.96875 -2.046875 Z M 6.96875 -2.046875 "/></g></g></g><g fill="#f8f3e8" fill-opacity="1"><g transform="translate(172.857793, 72.078095)"><g><path d="M 1.3125 -0.21875 C 1.695312 -0.851562 1.84375 -1.664062 1.75 -2.65625 L 0.9375 -10.953125 C 0.84375 -11.941406 0.546875 -12.710938 0.046875 -13.265625 L 0.046875 -13.359375 L 4.109375 -13.75 L 4.109375 -13.65625 C 3.734375 -13.019531 3.59375 -12.207031 3.6875 -11.21875 L 4.6875 -0.921875 L 6.578125 -1.109375 C 7.421875 -1.191406 8.109375 -1.390625 8.640625 -1.703125 C 9.171875 -2.015625 9.597656 -2.414062 9.921875 -2.90625 C 10.242188 -3.40625 10.523438 -4.039062 10.765625 -4.8125 L 10.953125 -4.828125 L 10.84375 -1.046875 L 1.328125 -0.125 Z M 1.3125 -0.21875 "/></g></g></g><g fill="#f8f3e8" fill-opacity="1"><g transform="translate(185.879111, 71.084448)"><g/></g></g><g fill="#f8f3e8" fill-opacity="1"><g transform="translate(192.507121, 71.062493)"><g><path d="M 5.640625 0.90625 C 4.773438 0.800781 3.957031 0.601562 3.1875 0.3125 C 2.414062 0.03125 1.804688 -0.253906 1.359375 -0.546875 L 1.796875 -4.296875 L 1.984375 -4.28125 C 2.253906 -2.96875 2.75 -1.882812 3.46875 -1.03125 C 4.195312 -0.175781 5.039062 0.300781 6 0.40625 C 6.78125 0.5 7.421875 0.351562 7.921875 -0.03125 C 8.421875 -0.414062 8.707031 -0.945312 8.78125 -1.625 C 8.863281 -2.320312 8.660156 -2.890625 8.171875 -3.328125 C 7.691406 -3.773438 6.957031 -4.21875 5.96875 -4.65625 C 5.050781 -5.0625 4.316406 -5.445312 3.765625 -5.8125 C 3.222656 -6.1875 2.804688 -6.65625 2.515625 -7.21875 C 2.222656 -7.789062 2.125 -8.507812 2.21875 -9.375 C 2.3125 -10.101562 2.582031 -10.75 3.03125 -11.3125 C 3.488281 -11.875 4.09375 -12.285156 4.84375 -12.546875 C 5.601562 -12.804688 6.453125 -12.882812 7.390625 -12.78125 C 8.109375 -12.695312 8.8125 -12.53125 9.5 -12.28125 C 10.1875 -12.03125 10.738281 -11.785156 11.15625 -11.546875 L 10.75 -8.046875 L 10.5625 -8.078125 C 10.25 -9.296875 9.789062 -10.273438 9.1875 -11.015625 C 8.59375 -11.765625 7.847656 -12.191406 6.953125 -12.296875 C 6.273438 -12.367188 5.6875 -12.238281 5.1875 -11.90625 C 4.695312 -11.570312 4.414062 -11.082031 4.34375 -10.4375 C 4.269531 -9.78125 4.484375 -9.238281 4.984375 -8.8125 C 5.484375 -8.382812 6.28125 -7.914062 7.375 -7.40625 C 8.226562 -7.019531 8.914062 -6.644531 9.4375 -6.28125 C 9.96875 -5.925781 10.382812 -5.453125 10.6875 -4.859375 C 11 -4.265625 11.109375 -3.519531 11.015625 -2.625 C 10.921875 -1.832031 10.644531 -1.144531 10.1875 -0.5625 C 9.726562 0.0078125 9.101562 0.425781 8.3125 0.6875 C 7.53125 0.945312 6.640625 1.019531 5.640625 0.90625 Z M 5.640625 0.90625 "/></g></g></g><g fill="#f8f3e8" fill-opacity="1"><g transform="translate(205.524766, 72.659444)"><g><path d="M 4.109375 0.984375 C 4.691406 0.523438 5.113281 -0.1875 5.375 -1.15625 L 5.96875 -3.375 L 4.59375 -9.859375 C 4.363281 -10.953125 3.988281 -11.914062 3.46875 -12.75 L 3.5 -12.828125 L 8.171875 -11.578125 L 8.140625 -11.5 C 7.816406 -11.21875 7.601562 -10.875 7.5 -10.46875 C 7.382812 -10.0625 7.378906 -9.609375 7.484375 -9.109375 L 8.5625 -3.828125 L 12.03125 -7.734375 C 12.382812 -8.140625 12.617188 -8.554688 12.734375 -8.984375 C 12.867188 -9.484375 12.832031 -9.925781 12.625 -10.3125 L 12.65625 -10.390625 L 15.390625 -9.65625 L 15.359375 -9.578125 C 14.378906 -9.210938 13.53125 -8.625 12.8125 -7.8125 L 8.796875 -3.296875 L 8.03125 -0.4375 C 7.769531 0.53125 7.773438 1.351562 8.046875 2.03125 L 8.015625 2.125 L 4.078125 1.078125 Z M 4.109375 0.984375 "/></g></g></g><g fill="#f8f3e8" fill-opacity="1"><g transform="translate(218.946859, 76.380497)"><g><path d="M 5.15625 2.484375 C 4.351562 2.140625 3.625 1.71875 2.96875 1.21875 C 2.3125 0.71875 1.8125 0.269531 1.46875 -0.125 L 2.953125 -3.609375 L 3.125 -3.546875 C 3.007812 -2.210938 3.175781 -1.03125 3.625 0 C 4.070312 1.019531 4.742188 1.71875 5.640625 2.09375 C 6.359375 2.40625 7.015625 2.445312 7.609375 2.21875 C 8.203125 1.988281 8.628906 1.566406 8.890625 0.953125 C 9.171875 0.296875 9.140625 -0.304688 8.796875 -0.859375 C 8.453125 -1.421875 7.867188 -2.054688 7.046875 -2.765625 C 6.296875 -3.398438 5.707031 -3.976562 5.28125 -4.5 C 4.863281 -5.019531 4.59375 -5.59375 4.46875 -6.21875 C 4.34375 -6.84375 4.453125 -7.554688 4.796875 -8.359375 C 5.085938 -9.035156 5.53125 -9.578125 6.125 -9.984375 C 6.726562 -10.390625 7.425781 -10.609375 8.21875 -10.640625 C 9.019531 -10.679688 9.851562 -10.519531 10.71875 -10.15625 C 11.382812 -9.863281 12.007812 -9.5 12.59375 -9.0625 C 13.1875 -8.632812 13.648438 -8.242188 13.984375 -7.890625 L 12.59375 -4.65625 L 12.421875 -4.71875 C 12.472656 -5.976562 12.316406 -7.050781 11.953125 -7.9375 C 11.597656 -8.832031 11.003906 -9.457031 10.171875 -9.8125 C 9.546875 -10.082031 8.945312 -10.125 8.375 -9.9375 C 7.800781 -9.757812 7.390625 -9.375 7.140625 -8.78125 C 6.878906 -8.164062 6.925781 -7.582031 7.28125 -7.03125 C 7.632812 -6.476562 8.269531 -5.800781 9.1875 -5 C 9.882812 -4.375 10.429688 -3.816406 10.828125 -3.328125 C 11.234375 -2.835938 11.5 -2.257812 11.625 -1.59375 C 11.757812 -0.9375 11.65625 -0.195312 11.3125 0.625 C 10.988281 1.363281 10.523438 1.941406 9.921875 2.359375 C 9.316406 2.773438 8.601562 3 7.78125 3.03125 C 6.957031 3.0625 6.082031 2.878906 5.15625 2.484375 Z M 5.15625 2.484375 "/></g></g></g><g fill="#f8f3e8" fill-opacity="1"><g transform="translate(230.965716, 81.602797)"><g><path d="M 3.71875 2.171875 C 4.414062 1.898438 5.023438 1.34375 5.546875 0.5 L 10.96875 -8.328125 L 10.359375 -8.703125 C 9.523438 -9.210938 8.675781 -9.390625 7.8125 -9.234375 C 6.957031 -9.085938 6.050781 -8.679688 5.09375 -8.015625 L 4.921875 -8.125 L 7.3125 -11.109375 L 17.4375 -4.890625 L 15.84375 -1.40625 L 15.6875 -1.515625 C 15.851562 -2.660156 15.804688 -3.648438 15.546875 -4.484375 C 15.296875 -5.328125 14.75 -6.003906 13.90625 -6.515625 L 13.3125 -6.890625 L 7.890625 1.9375 C 7.367188 2.78125 7.140625 3.570312 7.203125 4.3125 L 7.15625 4.390625 L 3.671875 2.25 Z M 3.71875 2.171875 "/></g></g></g><g fill="#f8f3e8" fill-opacity="1"><g transform="translate(243.103886, 89.229418)"><g><path d="M 1.078125 0.78125 C 1.804688 0.625 2.492188 0.160156 3.140625 -0.609375 L 8.5 -6.96875 C 9.144531 -7.726562 9.488281 -8.484375 9.53125 -9.234375 L 9.59375 -9.296875 L 16.71875 -3.28125 L 14.75 -0.203125 L 14.59375 -0.34375 C 14.925781 -1.425781 15.007812 -2.382812 14.84375 -3.21875 C 14.675781 -4.050781 14.125 -4.863281 13.1875 -5.65625 L 11.90625 -6.734375 L 8.09375 -2.234375 L 9.390625 -1.140625 C 9.941406 -0.671875 10.488281 -0.4375 11.03125 -0.4375 C 11.570312 -0.4375 12.117188 -0.625 12.671875 -1 L 12.8125 -0.875 L 9.921875 2.53125 L 9.78125 2.40625 C 10.0625 1.800781 10.148438 1.234375 10.046875 0.703125 C 9.953125 0.179688 9.628906 -0.3125 9.078125 -0.78125 L 7.78125 -1.875 L 3.921875 2.703125 L 5.53125 4.0625 C 6.46875 4.851562 7.359375 5.257812 8.203125 5.28125 C 9.046875 5.3125 9.988281 5.070312 11.03125 4.5625 L 11.171875 4.6875 L 8.46875 7.140625 L 1.015625 0.859375 Z M 1.078125 0.78125 "/></g></g></g><g fill="#f8f3e8" fill-opacity="1"><g transform="translate(253.61187, 97.944963)"><g><path d="M 0.703125 0.6875 C 1.222656 0.695312 1.6875 0.644531 2.09375 0.53125 C 2.5 0.425781 2.867188 0.234375 3.203125 -0.046875 L 9.625 -5.375 C 9.96875 -5.664062 10.226562 -6 10.40625 -6.375 C 10.582031 -6.757812 10.703125 -7.203125 10.765625 -7.703125 L 10.84375 -7.765625 L 13.203125 -4.9375 L 8.421875 4.640625 L 18.671875 1.625 L 20.71875 4.109375 L 20.640625 4.171875 C 19.910156 4.210938 19.160156 4.550781 18.390625 5.1875 L 11.984375 10.515625 C 11.210938 11.160156 10.742188 11.84375 10.578125 12.5625 L 10.5 12.625 L 7.890625 9.46875 L 7.96875 9.40625 C 8.695312 9.375 9.445312 9.035156 10.21875 8.390625 L 17.09375 2.671875 L 5.125 6.140625 L 4.859375 5.828125 L 10.375 -5.28125 L 3.5625 0.390625 C 3.226562 0.671875 2.96875 1 2.78125 1.375 C 2.601562 1.757812 2.472656 2.207031 2.390625 2.71875 L 2.3125 2.78125 L 0.625 0.75 Z M 0.703125 0.6875 "/></g></g></g><g fill="#f8f3e8" fill-opacity="1"><g transform="translate(86.311579, 297.119335)"><g><path d="M 2.515625 -0.1875 C 3.359375 -1.3125 3.78125 -2.820312 3.78125 -4.71875 L 3.78125 -20.484375 C 3.78125 -22.378906 3.359375 -23.890625 2.515625 -25.015625 L 2.515625 -25.203125 L 20.34375 -25.203125 L 21.234375 -18.328125 L 20.875 -18.328125 C 20.007812 -20.316406 18.945312 -21.804688 17.6875 -22.796875 C 16.425781 -23.796875 14.632812 -24.296875 12.3125 -24.296875 L 9 -24.296875 L 9 -13.140625 L 12.34375 -13.140625 C 13.71875 -13.140625 14.789062 -13.460938 15.5625 -14.109375 C 16.34375 -14.753906 16.914062 -15.691406 17.28125 -16.921875 L 17.640625 -16.921875 L 17.640625 -8.453125 L 17.28125 -8.453125 C 16.914062 -9.679688 16.34375 -10.617188 15.5625 -11.265625 C 14.789062 -11.910156 13.71875 -12.234375 12.34375 -12.234375 L 9 -12.234375 L 9 -4.71875 C 9 -2.820312 9.421875 -1.3125 10.265625 -0.1875 L 10.265625 0 L 2.515625 0 Z M 2.515625 -0.1875 "/></g></g></g><g fill="#f8f3e8" fill-opacity="1"><g transform="translate(109.207626, 297.119335)"><g><path d="M 13.75 0.46875 C 11.28125 0.46875 9.113281 -0.0664062 7.25 -1.140625 C 5.394531 -2.222656 3.957031 -3.753906 2.9375 -5.734375 C 1.914062 -7.722656 1.40625 -10.007812 1.40625 -12.59375 C 1.40625 -15.1875 1.914062 -17.472656 2.9375 -19.453125 C 3.957031 -21.429688 5.394531 -22.960938 7.25 -24.046875 C 9.113281 -25.128906 11.28125 -25.671875 13.75 -25.671875 C 16.21875 -25.671875 18.382812 -25.128906 20.25 -24.046875 C 22.113281 -22.960938 23.550781 -21.429688 24.5625 -19.453125 C 25.582031 -17.472656 26.09375 -15.1875 26.09375 -12.59375 C 26.09375 -10.007812 25.582031 -7.722656 24.5625 -5.734375 C 23.550781 -3.753906 22.113281 -2.222656 20.25 -1.140625 C 18.382812 -0.0664062 16.21875 0.46875 13.75 0.46875 Z M 13.75 -0.46875 C 15.164062 -0.46875 16.382812 -0.976562 17.40625 -2 C 18.425781 -3.019531 19.195312 -4.441406 19.71875 -6.265625 C 20.25 -8.085938 20.515625 -10.195312 20.515625 -12.59375 C 20.515625 -15 20.25 -17.113281 19.71875 -18.9375 C 19.195312 -20.757812 18.425781 -22.179688 17.40625 -23.203125 C 16.382812 -24.222656 15.164062 -24.734375 13.75 -24.734375 C 12.351562 -24.734375 11.144531 -24.222656 10.125 -23.203125 C 9.113281 -22.179688 8.335938 -20.757812 7.796875 -18.9375 C 7.253906 -17.113281 6.984375 -15 6.984375 -12.59375 C 6.984375 -10.195312 7.253906 -8.085938 7.796875 -6.265625 C 8.335938 -4.441406 9.113281 -3.019531 10.125 -2 C 11.144531 -0.976562 12.351562 -0.46875 13.75 -0.46875 Z M 13.75 -0.46875 "/></g></g></g><g fill="#f8f3e8" fill-opacity="1"><g transform="translate(137.863679, 297.119335)"><g><path d="M 22.21875 0.28125 C 20.695312 0.28125 19.46875 -0.0703125 18.53125 -0.78125 C 17.601562 -1.488281 16.898438 -2.328125 16.421875 -3.296875 C 15.941406 -4.265625 15.445312 -5.503906 14.9375 -7.015625 C 14.582031 -8.097656 14.265625 -8.957031 13.984375 -9.59375 C 13.710938 -10.226562 13.347656 -10.753906 12.890625 -11.171875 C 12.429688 -11.597656 11.851562 -11.8125 11.15625 -11.8125 L 9 -11.8125 L 9 -4.71875 C 9 -2.820312 9.421875 -1.3125 10.265625 -0.1875 L 10.265625 0 L 2.515625 0 L 2.515625 -0.1875 C 3.359375 -1.3125 3.78125 -2.820312 3.78125 -4.71875 L 3.78125 -20.484375 C 3.78125 -22.378906 3.359375 -23.890625 2.515625 -25.015625 L 2.515625 -25.203125 L 12.8125 -25.203125 C 15.550781 -25.203125 17.84375 -24.671875 19.6875 -23.609375 C 21.539062 -22.554688 22.46875 -20.867188 22.46875 -18.546875 C 22.46875 -17.222656 22.117188 -16.09375 21.421875 -15.15625 C 20.722656 -14.21875 19.820312 -13.503906 18.71875 -13.015625 C 17.613281 -12.523438 16.460938 -12.242188 15.265625 -12.171875 L 15.265625 -12.03125 C 16.460938 -11.976562 17.472656 -11.640625 18.296875 -11.015625 C 19.128906 -10.390625 19.789062 -9.632812 20.28125 -8.75 C 20.78125 -7.863281 21.253906 -6.796875 21.703125 -5.546875 C 22.234375 -4.078125 22.71875 -2.96875 23.15625 -2.21875 C 23.601562 -1.476562 24.148438 -1.109375 24.796875 -1.109375 C 25.234375 -1.109375 25.597656 -1.253906 25.890625 -1.546875 L 26.171875 -1.296875 C 25.859375 -0.796875 25.335938 -0.40625 24.609375 -0.125 C 23.878906 0.144531 23.082031 0.28125 22.21875 0.28125 Z M 12.125 -12.703125 C 13.6875 -12.703125 14.898438 -13.222656 15.765625 -14.265625 C 16.628906 -15.316406 17.0625 -16.742188 17.0625 -18.546875 C 17.0625 -20.335938 16.617188 -21.75 15.734375 -22.78125 C 14.847656 -23.820312 13.597656 -24.34375 11.984375 -24.34375 C 10.910156 -24.34375 9.914062 -24.160156 9 -23.796875 L 9 -12.703125 Z M 12.125 -12.703125 "/></g></g></g><g fill="#f8f3e8" fill-opacity="1"><g transform="translate(164.971727, 297.119335)"><g/></g></g><g fill="#f8f3e8" fill-opacity="1"><g transform="translate(175.123751, 297.119335)"><g><path d="M 1.875 -0.21875 C 2.5 -0.9375 2.976562 -1.65625 3.3125 -2.375 C 3.644531 -3.09375 3.8125 -3.875 3.8125 -4.71875 L 3.8125 -20.515625 C 3.8125 -21.359375 3.644531 -22.140625 3.3125 -22.859375 C 2.976562 -23.578125 2.5 -24.296875 1.875 -25.015625 L 1.875 -25.203125 L 8.8125 -25.203125 L 16.953125 -6.625 L 25.015625 -25.203125 L 31.109375 -25.203125 L 31.109375 -25.015625 C 30.265625 -23.890625 29.84375 -22.378906 29.84375 -20.484375 L 29.84375 -4.71875 C 29.84375 -2.820312 30.265625 -1.3125 31.109375 -0.1875 L 31.109375 0 L 23.359375 0 L 23.359375 -0.1875 C 24.203125 -1.3125 24.625 -2.820312 24.625 -4.71875 L 24.625 -21.640625 L 15.15625 0 L 14.40625 0 L 4.890625 -21.484375 L 4.890625 -4.71875 C 4.890625 -3.875 5.054688 -3.09375 5.390625 -2.375 C 5.734375 -1.65625 6.21875 -0.9375 6.84375 -0.21875 L 6.84375 0 L 1.875 0 Z M 1.875 -0.21875 "/></g></g></g><g fill="#f8f3e8" fill-opacity="1"><g transform="translate(209.89982, 297.119335)"><g><path d="M 13.75 0.46875 C 11.28125 0.46875 9.113281 -0.0664062 7.25 -1.140625 C 5.394531 -2.222656 3.957031 -3.753906 2.9375 -5.734375 C 1.914062 -7.722656 1.40625 -10.007812 1.40625 -12.59375 C 1.40625 -15.1875 1.914062 -17.472656 2.9375 -19.453125 C 3.957031 -21.429688 5.394531 -22.960938 7.25 -24.046875 C 9.113281 -25.128906 11.28125 -25.671875 13.75 -25.671875 C 16.21875 -25.671875 18.382812 -25.128906 20.25 -24.046875 C 22.113281 -22.960938 23.550781 -21.429688 24.5625 -19.453125 C 25.582031 -17.472656 26.09375 -15.1875 26.09375 -12.59375 C 26.09375 -10.007812 25.582031 -7.722656 24.5625 -5.734375 C 23.550781 -3.753906 22.113281 -2.222656 20.25 -1.140625 C 18.382812 -0.0664062 16.21875 0.46875 13.75 0.46875 Z M 13.75 -0.46875 C 15.164062 -0.46875 16.382812 -0.976562 17.40625 -2 C 18.425781 -3.019531 19.195312 -4.441406 19.71875 -6.265625 C 20.25 -8.085938 20.515625 -10.195312 20.515625 -12.59375 C 20.515625 -15 20.25 -17.113281 19.71875 -18.9375 C 19.195312 -20.757812 18.425781 -22.179688 17.40625 -23.203125 C 16.382812 -24.222656 15.164062 -24.734375 13.75 -24.734375 C 12.351562 -24.734375 11.144531 -24.222656 10.125 -23.203125 C 9.113281 -22.179688 8.335938 -20.757812 7.796875 -18.9375 C 7.253906 -17.113281 6.984375 -15 6.984375 -12.59375 C 6.984375 -10.195312 7.253906 -8.085938 7.796875 -6.265625 C 8.335938 -4.441406 9.113281 -3.019531 10.125 -2 C 11.144531 -0.976562 12.351562 -0.46875 13.75 -0.46875 Z M 13.75 -0.46875 "/></g></g></g><g fill="#f8f3e8" fill-opacity="1"><g transform="translate(238.55587, 297.119335)"><g><path d="M 22.21875 0.28125 C 20.695312 0.28125 19.46875 -0.0703125 18.53125 -0.78125 C 17.601562 -1.488281 16.898438 -2.328125 16.421875 -3.296875 C 15.941406 -4.265625 15.445312 -5.503906 14.9375 -7.015625 C 14.582031 -8.097656 14.265625 -8.957031 13.984375 -9.59375 C 13.710938 -10.226562 13.347656 -10.753906 12.890625 -11.171875 C 12.429688 -11.597656 11.851562 -11.8125 11.15625 -11.8125 L 9 -11.8125 L 9 -4.71875 C 9 -2.820312 9.421875 -1.3125 10.265625 -0.1875 L 10.265625 0 L 2.515625 0 L 2.515625 -0.1875 C 3.359375 -1.3125 3.78125 -2.820312 3.78125 -4.71875 L 3.78125 -20.484375 C 3.78125 -22.378906 3.359375 -23.890625 2.515625 -25.015625 L 2.515625 -25.203125 L 12.8125 -25.203125 C 15.550781 -25.203125 17.84375 -24.671875 19.6875 -23.609375 C 21.539062 -22.554688 22.46875 -20.867188 22.46875 -18.546875 C 22.46875 -17.222656 22.117188 -16.09375 21.421875 -15.15625 C 20.722656 -14.21875 19.820312 -13.503906 18.71875 -13.015625 C 17.613281 -12.523438 16.460938 -12.242188 15.265625 -12.171875 L 15.265625 -12.03125 C 16.460938 -11.976562 17.472656 -11.640625 18.296875 -11.015625 C 19.128906 -10.390625 19.789062 -9.632812 20.28125 -8.75 C 20.78125 -7.863281 21.253906 -6.796875 21.703125 -5.546875 C 22.234375 -4.078125 22.71875 -2.96875 23.15625 -2.21875 C 23.601562 -1.476562 24.148438 -1.109375 24.796875 -1.109375 C 25.234375 -1.109375 25.597656 -1.253906 25.890625 -1.546875 L 26.171875 -1.296875 C 25.859375 -0.796875 25.335938 -0.40625 24.609375 -0.125 C 23.878906 0.144531 23.082031 0.28125 22.21875 0.28125 Z M 12.125 -12.703125 C 13.6875 -12.703125 14.898438 -13.222656 15.765625 -14.265625 C 16.628906 -15.316406 17.0625 -16.742188 17.0625 -18.546875 C 17.0625 -20.335938 16.617188 -21.75 15.734375 -22.78125 C 14.847656 -23.820312 13.597656 -24.34375 11.984375 -24.34375 C 10.910156 -24.34375 9.914062 -24.160156 9 -23.796875 L 9 -12.703125 Z M 12.125 -12.703125 "/></g></g></g><g fill="#f8f3e8" fill-opacity="1"><g transform="translate(265.663912, 297.119335)"><g><path d="M 2.515625 -0.1875 C 3.359375 -1.3125 3.78125 -2.820312 3.78125 -4.71875 L 3.78125 -20.484375 C 3.78125 -22.378906 3.359375 -23.890625 2.515625 -25.015625 L 2.515625 -25.203125 L 20.203125 -25.203125 L 21.09375 -18.328125 L 20.734375 -18.328125 C 19.867188 -20.316406 18.804688 -21.804688 17.546875 -22.796875 C 16.285156 -23.796875 14.492188 -24.296875 12.171875 -24.296875 L 9 -24.296875 L 9 -13.140625 L 12.203125 -13.140625 C 13.566406 -13.140625 14.640625 -13.460938 15.421875 -14.109375 C 16.203125 -14.753906 16.757812 -15.691406 17.09375 -16.921875 L 17.453125 -16.921875 L 17.453125 -8.453125 L 17.09375 -8.453125 C 16.757812 -9.679688 16.203125 -10.617188 15.421875 -11.265625 C 14.640625 -11.910156 13.566406 -12.234375 12.203125 -12.234375 L 9 -12.234375 L 9 -0.90625 L 12.953125 -0.90625 C 15.285156 -0.90625 17.082031 -1.398438 18.34375 -2.390625 C 19.601562 -3.390625 20.664062 -4.882812 21.53125 -6.875 L 21.890625 -6.875 L 20.984375 0 L 2.515625 0 Z M 2.515625 -0.1875 "/></g></g></g><g fill="#f8f3e8" fill-opacity="1"><g transform="translate(151.197598, 318.615181)"><g><path d="M 2.203125 -5.59375 L 3.5625 -5.59375 L 5.71875 0 L 4.4375 0 L 3.953125 -1.28125 L 1.796875 -1.28125 L 1.3125 0 L 0.046875 0 Z M 3.5625 -2.359375 L 2.890625 -4.203125 L 2.859375 -4.203125 L 2.203125 -2.359375 Z M 3.5625 -2.359375 "/></g></g></g><g fill="#f8f3e8" fill-opacity="1"><g transform="translate(158.31766, 318.615181)"><g><path d="M 2.3125 0.125 C 1.957031 0.125 1.644531 0.078125 1.375 -0.015625 C 1.101562 -0.109375 0.878906 -0.207031 0.703125 -0.3125 C 0.484375 -0.445312 0.300781 -0.597656 0.15625 -0.765625 L 0.953125 -1.5625 C 1.054688 -1.445312 1.171875 -1.34375 1.296875 -1.25 C 1.410156 -1.175781 1.546875 -1.109375 1.703125 -1.046875 C 1.867188 -0.984375 2.0625 -0.953125 2.28125 -0.953125 C 2.601562 -0.953125 2.835938 -1.015625 2.984375 -1.140625 C 3.128906 -1.265625 3.203125 -1.414062 3.203125 -1.59375 C 3.203125 -1.757812 3.128906 -1.890625 2.984375 -1.984375 C 2.847656 -2.078125 2.675781 -2.160156 2.46875 -2.234375 C 2.257812 -2.304688 2.035156 -2.378906 1.796875 -2.453125 C 1.554688 -2.535156 1.332031 -2.640625 1.125 -2.765625 C 0.914062 -2.898438 0.742188 -3.070312 0.609375 -3.28125 C 0.472656 -3.488281 0.40625 -3.753906 0.40625 -4.078125 C 0.40625 -4.296875 0.453125 -4.503906 0.546875 -4.703125 C 0.640625 -4.910156 0.769531 -5.085938 0.9375 -5.234375 C 1.113281 -5.378906 1.328125 -5.492188 1.578125 -5.578125 C 1.828125 -5.671875 2.113281 -5.71875 2.4375 -5.71875 C 2.75 -5.71875 3.019531 -5.675781 3.25 -5.59375 C 3.488281 -5.519531 3.6875 -5.429688 3.84375 -5.328125 C 4.03125 -5.222656 4.1875 -5.097656 4.3125 -4.953125 L 3.515625 -4.15625 C 3.429688 -4.25 3.335938 -4.332031 3.234375 -4.40625 C 3.148438 -4.457031 3.039062 -4.507812 2.90625 -4.5625 C 2.78125 -4.613281 2.640625 -4.640625 2.484375 -4.640625 C 2.179688 -4.640625 1.960938 -4.582031 1.828125 -4.46875 C 1.703125 -4.363281 1.640625 -4.234375 1.640625 -4.078125 C 1.640625 -3.921875 1.707031 -3.796875 1.84375 -3.703125 C 1.988281 -3.609375 2.164062 -3.523438 2.375 -3.453125 C 2.582031 -3.378906 2.804688 -3.300781 3.046875 -3.21875 C 3.285156 -3.132812 3.507812 -3.023438 3.71875 -2.890625 C 3.925781 -2.765625 4.097656 -2.597656 4.234375 -2.390625 C 4.367188 -2.191406 4.4375 -1.925781 4.4375 -1.59375 C 4.4375 -1.363281 4.390625 -1.144531 4.296875 -0.9375 C 4.203125 -0.726562 4.0625 -0.546875 3.875 -0.390625 C 3.6875 -0.234375 3.460938 -0.109375 3.203125 -0.015625 C 2.941406 0.078125 2.644531 0.125 2.3125 0.125 Z M 2.3125 0.125 "/></g></g></g><g fill="#f8f3e8" fill-opacity="1"><g transform="translate(164.357711, 318.615181)"><g><path d="M 2.203125 -5.59375 L 3.5625 -5.59375 L 5.71875 0 L 4.4375 0 L 3.953125 -1.28125 L 1.796875 -1.28125 L 1.3125 0 L 0.046875 0 Z M 3.5625 -2.359375 L 2.890625 -4.203125 L 2.859375 -4.203125 L 2.203125 -2.359375 Z M 3.5625 -2.359375 "/></g></g></g><g fill="#f8f3e8" fill-opacity="1"><g transform="translate(171.477772, 318.615181)"><g><path d="M 3.40625 0.125 C 2.96875 0.125 2.5625 0.046875 2.1875 -0.109375 C 1.820312 -0.265625 1.503906 -0.472656 1.234375 -0.734375 C 0.960938 -1.003906 0.75 -1.316406 0.59375 -1.671875 C 0.4375 -2.023438 0.359375 -2.398438 0.359375 -2.796875 C 0.359375 -3.203125 0.4375 -3.582031 0.59375 -3.9375 C 0.75 -4.289062 0.960938 -4.597656 1.234375 -4.859375 C 1.503906 -5.117188 1.820312 -5.328125 2.1875 -5.484375 C 2.5625 -5.640625 2.96875 -5.71875 3.40625 -5.71875 C 3.789062 -5.71875 4.128906 -5.660156 4.421875 -5.546875 C 4.722656 -5.429688 4.972656 -5.300781 5.171875 -5.15625 C 5.398438 -4.988281 5.597656 -4.800781 5.765625 -4.59375 L 4.953125 -3.796875 C 4.835938 -3.953125 4.703125 -4.085938 4.546875 -4.203125 C 4.421875 -4.304688 4.257812 -4.394531 4.0625 -4.46875 C 3.875 -4.550781 3.65625 -4.59375 3.40625 -4.59375 C 3.15625 -4.59375 2.921875 -4.546875 2.703125 -4.453125 C 2.484375 -4.359375 2.289062 -4.226562 2.125 -4.0625 C 1.957031 -3.90625 1.828125 -3.71875 1.734375 -3.5 C 1.640625 -3.28125 1.59375 -3.046875 1.59375 -2.796875 C 1.59375 -2.546875 1.640625 -2.3125 1.734375 -2.09375 C 1.828125 -1.875 1.957031 -1.679688 2.125 -1.515625 C 2.289062 -1.359375 2.484375 -1.234375 2.703125 -1.140625 C 2.921875 -1.046875 3.15625 -1 3.40625 -1 C 3.664062 -1 3.894531 -1.039062 4.09375 -1.125 C 4.289062 -1.207031 4.457031 -1.300781 4.59375 -1.40625 C 4.75 -1.519531 4.882812 -1.648438 5 -1.796875 L 5.796875 -1 C 5.628906 -0.789062 5.429688 -0.601562 5.203125 -0.4375 C 4.992188 -0.300781 4.738281 -0.171875 4.4375 -0.046875 C 4.144531 0.0664062 3.800781 0.125 3.40625 0.125 Z M 3.40625 0.125 "/></g></g></g><g fill="#f8f3e8" fill-opacity="1"><g transform="translate(178.797837, 318.615181)"><g/></g></g><g fill="#f8f3e8" fill-opacity="1"><g transform="translate(181.83786, 318.615181)"><g><path d="M 2.3125 0.125 C 1.957031 0.125 1.644531 0.078125 1.375 -0.015625 C 1.101562 -0.109375 0.878906 -0.207031 0.703125 -0.3125 C 0.484375 -0.445312 0.300781 -0.597656 0.15625 -0.765625 L 0.953125 -1.5625 C 1.054688 -1.445312 1.171875 -1.34375 1.296875 -1.25 C 1.410156 -1.175781 1.546875 -1.109375 1.703125 -1.046875 C 1.867188 -0.984375 2.0625 -0.953125 2.28125 -0.953125 C 2.601562 -0.953125 2.835938 -1.015625 2.984375 -1.140625 C 3.128906 -1.265625 3.203125 -1.414062 3.203125 -1.59375 C 3.203125 -1.757812 3.128906 -1.890625 2.984375 -1.984375 C 2.847656 -2.078125 2.675781 -2.160156 2.46875 -2.234375 C 2.257812 -2.304688 2.035156 -2.378906 1.796875 -2.453125 C 1.554688 -2.535156 1.332031 -2.640625 1.125 -2.765625 C 0.914062 -2.898438 0.742188 -3.070312 0.609375 -3.28125 C 0.472656 -3.488281 0.40625 -3.753906 0.40625 -4.078125 C 0.40625 -4.296875 0.453125 -4.503906 0.546875 -4.703125 C 0.640625 -4.910156 0.769531 -5.085938 0.9375 -5.234375 C 1.113281 -5.378906 1.328125 -5.492188 1.578125 -5.578125 C 1.828125 -5.671875 2.113281 -5.71875 2.4375 -5.71875 C 2.75 -5.71875 3.019531 -5.675781 3.25 -5.59375 C 3.488281 -5.519531 3.6875 -5.429688 3.84375 -5.328125 C 4.03125 -5.222656 4.1875 -5.097656 4.3125 -4.953125 L 3.515625 -4.15625 C 3.429688 -4.25 3.335938 -4.332031 3.234375 -4.40625 C 3.148438 -4.457031 3.039062 -4.507812 2.90625 -4.5625 C 2.78125 -4.613281 2.640625 -4.640625 2.484375 -4.640625 C 2.179688 -4.640625 1.960938 -4.582031 1.828125 -4.46875 C 1.703125 -4.363281 1.640625 -4.234375 1.640625 -4.078125 C 1.640625 -3.921875 1.707031 -3.796875 1.84375 -3.703125 C 1.988281 -3.609375 2.164062 -3.523438 2.375 -3.453125 C 2.582031 -3.378906 2.804688 -3.300781 3.046875 -3.21875 C 3.285156 -3.132812 3.507812 -3.023438 3.71875 -2.890625 C 3.925781 -2.765625 4.097656 -2.597656 4.234375 -2.390625 C 4.367188 -2.191406 4.4375 -1.925781 4.4375 -1.59375 C 4.4375 -1.363281 4.390625 -1.144531 4.296875 -0.9375 C 4.203125 -0.726562 4.0625 -0.546875 3.875 -0.390625 C 3.6875 -0.234375 3.460938 -0.109375 3.203125 -0.015625 C 2.941406 0.078125 2.644531 0.125 2.3125 0.125 Z M 2.3125 0.125 "/></g></g></g><g fill="#f8f3e8" fill-opacity="1"><g transform="translate(187.877912, 318.615181)"><g><path d="M 3.40625 0.125 C 2.96875 0.125 2.5625 0.046875 2.1875 -0.109375 C 1.820312 -0.265625 1.503906 -0.472656 1.234375 -0.734375 C 0.960938 -1.003906 0.75 -1.316406 0.59375 -1.671875 C 0.4375 -2.023438 0.359375 -2.398438 0.359375 -2.796875 C 0.359375 -3.203125 0.4375 -3.582031 0.59375 -3.9375 C 0.75 -4.289062 0.960938 -4.597656 1.234375 -4.859375 C 1.503906 -5.117188 1.820312 -5.328125 2.1875 -5.484375 C 2.5625 -5.640625 2.96875 -5.71875 3.40625 -5.71875 C 3.789062 -5.71875 4.128906 -5.660156 4.421875 -5.546875 C 4.722656 -5.429688 4.972656 -5.300781 5.171875 -5.15625 C 5.398438 -4.988281 5.597656 -4.800781 5.765625 -4.59375 L 4.953125 -3.796875 C 4.835938 -3.953125 4.703125 -4.085938 4.546875 -4.203125 C 4.421875 -4.304688 4.257812 -4.394531 4.0625 -4.46875 C 3.875 -4.550781 3.65625 -4.59375 3.40625 -4.59375 C 3.15625 -4.59375 2.921875 -4.546875 2.703125 -4.453125 C 2.484375 -4.359375 2.289062 -4.226562 2.125 -4.0625 C 1.957031 -3.90625 1.828125 -3.71875 1.734375 -3.5 C 1.640625 -3.28125 1.59375 -3.046875 1.59375 -2.796875 C 1.59375 -2.546875 1.640625 -2.3125 1.734375 -2.09375 C 1.828125 -1.875 1.957031 -1.679688 2.125 -1.515625 C 2.289062 -1.359375 2.484375 -1.234375 2.703125 -1.140625 C 2.921875 -1.046875 3.15625 -1 3.40625 -1 C 3.664062 -1 3.894531 -1.039062 4.09375 -1.125 C 4.289062 -1.207031 4.457031 -1.300781 4.59375 -1.40625 C 4.75 -1.519531 4.882812 -1.648438 5 -1.796875 L 5.796875 -1 C 5.628906 -0.789062 5.429688 -0.601562 5.203125 -0.4375 C 4.992188 -0.300781 4.738281 -0.171875 4.4375 -0.046875 C 4.144531 0.0664062 3.800781 0.125 3.40625 0.125 Z M 3.40625 0.125 "/></g></g></g><g fill="#f8f3e8" fill-opacity="1"><g transform="translate(195.197974, 318.615181)"><g><path d="M 0.71875 -5.59375 L 1.921875 -5.59375 L 1.921875 -3.40625 L 4.3125 -3.40625 L 4.3125 -5.59375 L 5.515625 -5.59375 L 5.515625 0 L 4.3125 0 L 4.3125 -2.28125 L 1.921875 -2.28125 L 1.921875 0 L 0.71875 0 Z M 0.71875 -5.59375 "/></g></g></g><g fill="#f8f3e8" fill-opacity="1"><g transform="translate(202.798039, 318.615181)"><g><path d="M 3.40625 0.125 C 2.96875 0.125 2.5625 0.046875 2.1875 -0.109375 C 1.820312 -0.265625 1.503906 -0.472656 1.234375 -0.734375 C 0.960938 -1.003906 0.75 -1.316406 0.59375 -1.671875 C 0.4375 -2.023438 0.359375 -2.398438 0.359375 -2.796875 C 0.359375 -3.203125 0.4375 -3.582031 0.59375 -3.9375 C 0.75 -4.289062 0.960938 -4.597656 1.234375 -4.859375 C 1.503906 -5.117188 1.820312 -5.328125 2.1875 -5.484375 C 2.5625 -5.640625 2.96875 -5.71875 3.40625 -5.71875 C 3.832031 -5.71875 4.226562 -5.640625 4.59375 -5.484375 C 4.96875 -5.328125 5.289062 -5.117188 5.5625 -4.859375 C 5.832031 -4.597656 6.046875 -4.289062 6.203125 -3.9375 C 6.359375 -3.582031 6.4375 -3.203125 6.4375 -2.796875 C 6.4375 -2.398438 6.359375 -2.023438 6.203125 -1.671875 C 6.046875 -1.316406 5.832031 -1.003906 5.5625 -0.734375 C 5.289062 -0.472656 4.96875 -0.265625 4.59375 -0.109375 C 4.226562 0.046875 3.832031 0.125 3.40625 0.125 Z M 3.40625 -1 C 3.65625 -1 3.890625 -1.046875 4.109375 -1.140625 C 4.328125 -1.234375 4.515625 -1.359375 4.671875 -1.515625 C 4.835938 -1.679688 4.96875 -1.875 5.0625 -2.09375 C 5.15625 -2.3125 5.203125 -2.546875 5.203125 -2.796875 C 5.203125 -3.046875 5.15625 -3.28125 5.0625 -3.5 C 4.96875 -3.71875 4.835938 -3.90625 4.671875 -4.0625 C 4.515625 -4.226562 4.328125 -4.359375 4.109375 -4.453125 C 3.890625 -4.546875 3.65625 -4.59375 3.40625 -4.59375 C 3.15625 -4.59375 2.921875 -4.546875 2.703125 -4.453125 C 2.484375 -4.359375 2.289062 -4.226562 2.125 -4.0625 C 1.957031 -3.90625 1.828125 -3.71875 1.734375 -3.5 C 1.640625 -3.28125 1.59375 -3.046875 1.59375 -2.796875 C 1.59375 -2.546875 1.640625 -2.3125 1.734375 -2.09375 C 1.828125 -1.875 1.957031 -1.679688 2.125 -1.515625 C 2.289062 -1.359375 2.484375 -1.234375 2.703125 -1.140625 C 2.921875 -1.046875 3.15625 -1 3.40625 -1 Z M 3.40625 -1 "/></g></g></g><g fill="#f8f3e8" fill-opacity="1"><g transform="translate(210.958113, 318.615181)"><g><path d="M 3.40625 0.125 C 2.96875 0.125 2.5625 0.046875 2.1875 -0.109375 C 1.820312 -0.265625 1.503906 -0.472656 1.234375 -0.734375 C 0.960938 -1.003906 0.75 -1.316406 0.59375 -1.671875 C 0.4375 -2.023438 0.359375 -2.398438 0.359375 -2.796875 C 0.359375 -3.203125 0.4375 -3.582031 0.59375 -3.9375 C 0.75 -4.289062 0.960938 -4.597656 1.234375 -4.859375 C 1.503906 -5.117188 1.820312 -5.328125 2.1875 -5.484375 C 2.5625 -5.640625 2.96875 -5.71875 3.40625 -5.71875 C 3.832031 -5.71875 4.226562 -5.640625 4.59375 -5.484375 C 4.96875 -5.328125 5.289062 -5.117188 5.5625 -4.859375 C 5.832031 -4.597656 6.046875 -4.289062 6.203125 -3.9375 C 6.359375 -3.582031 6.4375 -3.203125 6.4375 -2.796875 C 6.4375 -2.398438 6.359375 -2.023438 6.203125 -1.671875 C 6.046875 -1.316406 5.832031 -1.003906 5.5625 -0.734375 C 5.289062 -0.472656 4.96875 -0.265625 4.59375 -0.109375 C 4.226562 0.046875 3.832031 0.125 3.40625 0.125 Z M 3.40625 -1 C 3.65625 -1 3.890625 -1.046875 4.109375 -1.140625 C 4.328125 -1.234375 4.515625 -1.359375 4.671875 -1.515625 C 4.835938 -1.679688 4.96875 -1.875 5.0625 -2.09375 C 5.15625 -2.3125 5.203125 -2.546875 5.203125 -2.796875 C 5.203125 -3.046875 5.15625 -3.28125 5.0625 -3.5 C 4.96875 -3.71875 4.835938 -3.90625 4.671875 -4.0625 C 4.515625 -4.226562 4.328125 -4.359375 4.109375 -4.453125 C 3.890625 -4.546875 3.65625 -4.59375 3.40625 -4.59375 C 3.15625 -4.59375 2.921875 -4.546875 2.703125 -4.453125 C 2.484375 -4.359375 2.289062 -4.226562 2.125 -4.0625 C 1.957031 -3.90625 1.828125 -3.71875 1.734375 -3.5 C 1.640625 -3.28125 1.59375 -3.046875 1.59375 -2.796875 C 1.59375 -2.546875 1.640625 -2.3125 1.734375 -2.09375 C 1.828125 -1.875 1.957031 -1.679688 2.125 -1.515625 C 2.289062 -1.359375 2.484375 -1.234375 2.703125 -1.140625 C 2.921875 -1.046875 3.15625 -1 3.40625 -1 Z M 3.40625 -1 "/></g></g></g><g fill="#f8f3e8" fill-opacity="1"><g transform="translate(219.118187, 318.615181)"><g><path d="M 0.71875 -5.59375 L 1.921875 -5.59375 L 1.921875 -1.125 L 4.515625 -1.125 L 4.515625 0 L 0.71875 0 Z M 0.71875 -5.59375 "/></g></g></g></svg>